<svg width="24" height="19" viewBox="0 0 24 19" fill="none" xmlns="http://www.w3.org/2000/svg">
<path d="M20.5228 0.471436H3.47724C1.80793 0.471436 0.450012 1.82869 0.450012 3.498V15.0014C0.450012 16.6701 1.80793 18.0287 3.47724 18.0287H20.5228C22.1914 18.0287 23.55 16.6701 23.55 15.0014V3.498C23.55 1.82869 22.1914 0.471436 20.5228 0.471436ZM22.3386 15.0027C22.3386 16.0042 21.5243 16.8185 20.5228 16.8185H3.47724C2.47572 16.8185 1.66076 16.0042 1.66076 15.0027V3.49927C1.66076 2.49775 2.47566 1.68279 3.47724 1.68279H20.5228C21.5243 1.68279 22.3386 2.49769 22.3386 3.49927V15.0027Z" fill="#C94403"/>
<path d="M3.3028 3.83911H4.51442V14.6619H3.3028V3.83911Z" fill="#C94403"/>
<path d="M5.70197 3.83911H6.91227V14.6619H5.70197V3.83911Z" fill="#C94403"/>
<path d="M7.49493 3.83911H8.7059V14.6619H7.49493V3.83911Z" fill="#C94403"/>
<path d="M10.4976 3.83911H11.7086V14.6619H10.4976V3.83911Z" fill="#C94403"/>
<path d="M12.2911 3.83911H13.5027V14.6619H12.2911V3.83911Z" fill="#C94403"/>
<path d="M15.2952 3.83911H16.5062V14.6619H15.2952V3.83911Z" fill="#C94403"/>
<path d="M17.088 3.83911H18.2989V14.6619H17.088V3.83911Z" fill="#C94403"/>
<path d="M19.4864 3.83911H20.6974V14.6619H19.4864V3.83911Z" fill="#C94403"/>
</svg>
