<svg width="28" height="22" viewBox="0 0 28 22" fill="none" xmlns="http://www.w3.org/2000/svg">
<path d="M24.3306 0.359375H3.66936C1.64596 0.359375 0 2.00453 0 4.02794V17.9715C0 19.9941 1.64596 21.6409 3.66936 21.6409H24.3306C26.3532 21.6409 28 19.9941 28 17.9715V4.02794C28 2.00453 26.3532 0.359375 24.3306 0.359375V0.359375ZM26.5316 17.973C26.5316 19.187 25.5446 20.174 24.3306 20.174H3.66936C2.4554 20.174 1.46757 19.187 1.46757 17.973V4.02947C1.46757 2.81551 2.45534 1.82768 3.66936 1.82768H24.3306C25.5446 1.82768 26.5316 2.81545 26.5316 4.02947V17.973Z" fill="#C94403"/>
<path d="M3.45801 4.44141H4.92665V17.5599H3.45801V4.44141Z" fill="#C94403"/>
<path d="M6.36621 4.44141H7.83325V17.5599H6.36621V4.44141Z" fill="#C94403"/>
<path d="M8.53906 4.44141H10.0069V17.5599H8.53906V4.44141Z" fill="#C94403"/>
<path d="M12.1787 4.44141H13.6466V17.5599H12.1787V4.44141Z" fill="#C94403"/>
<path d="M14.3525 4.44141H15.8212V17.5599H14.3525V4.44141Z" fill="#C94403"/>
<path d="M17.9941 4.44141H19.462V17.5599H17.9941V4.44141Z" fill="#C94403"/>
<path d="M20.167 4.44141H21.6348V17.5599H20.167V4.44141Z" fill="#C94403"/>
<path d="M23.0742 4.44141H24.5421V17.5599H23.0742V4.44141Z" fill="#C94403"/>
</svg>
