<svg width="27" height="21" viewBox="0 0 27 21" fill="none" xmlns="http://www.w3.org/2000/svg">
<path d="M15.4739 18.2365H11.0528C10.6579 18.2365 10.2931 18.0259 10.0956 17.684C9.89821 17.3421 9.89821 16.9206 10.0956 16.5786C10.2931 16.2367 10.6579 16.0261 11.0528 16.0261H15.4739C15.8688 16.0261 16.2336 16.2367 16.4311 16.5786C16.6285 16.9206 16.6285 17.342 16.4311 17.684C16.2336 18.0259 15.8688 18.2365 15.4739 18.2365Z" fill="url(#paint0_linear_1057_17508)"/>
<path d="M9.94747 9.39485C9.94747 9.69996 9.70008 9.94735 9.39478 9.94735C9.08967 9.94735 8.84229 9.69996 8.84229 9.39485C8.84229 9.08955 9.08967 8.84216 9.39478 8.84216C9.70008 8.84216 9.94747 9.08955 9.94747 9.39485Z" fill="url(#paint1_linear_1057_17508)"/>
<path d="M9.94747 11.6051C9.94747 11.9104 9.70008 12.1578 9.39478 12.1578C9.08967 12.1578 8.84229 11.9104 8.84229 11.6051C8.84229 11.3 9.08967 11.0526 9.39478 11.0526C9.70008 11.0526 9.94747 11.3 9.94747 11.6051Z" fill="url(#paint2_linear_1057_17508)"/>
<path d="M9.94747 13.8157C9.94747 14.1209 9.70008 14.3684 9.39478 14.3684C9.08967 14.3684 8.84229 14.1209 8.84229 13.8157C8.84229 13.5106 9.08967 13.2631 9.39478 13.2631C9.70008 13.2631 9.94747 13.5106 9.94747 13.8157Z" fill="url(#paint3_linear_1057_17508)"/>
<path d="M3.316 11.0527C3.316 11.3578 3.06861 11.6052 2.76331 11.6052C2.4582 11.6052 2.21082 11.3578 2.21082 11.0527C2.21082 10.7474 2.4582 10.5 2.76331 10.5C3.06861 10.5 3.316 10.7474 3.316 11.0527Z" fill="url(#paint4_linear_1057_17508)"/>
<path d="M3.316 13.2629C3.316 13.5682 3.06861 13.8156 2.76331 13.8156C2.4582 13.8156 2.21082 13.5682 2.21082 13.2629C2.21082 12.9578 2.4582 12.7104 2.76331 12.7104C3.06861 12.7104 3.316 12.9578 3.316 13.2629Z" fill="url(#paint5_linear_1057_17508)"/>
<path d="M3.316 15.4736C3.316 15.7787 3.06861 16.0263 2.76331 16.0263C2.4582 16.0263 2.21082 15.7787 2.21082 15.4736C2.21082 15.1685 2.4582 14.9209 2.76331 14.9209C3.06861 14.9209 3.316 15.1685 3.316 15.4736Z" fill="url(#paint6_linear_1057_17508)"/>
<path d="M17.1317 9.94698H11.6053C11.3002 9.94698 11.0526 9.69959 11.0526 9.39448C11.0526 9.08918 11.3002 8.8418 11.6053 8.8418H17.1317C17.4368 8.8418 17.6842 9.08918 17.6842 9.39448C17.6842 9.6996 17.4368 9.94698 17.1317 9.94698Z" fill="url(#paint7_linear_1057_17508)"/>
<path d="M17.1317 12.1578H11.6053C11.3002 12.1578 11.0526 11.9104 11.0526 11.6051C11.0526 11.3 11.3002 11.0526 11.6053 11.0526H17.1317C17.4368 11.0526 17.6842 11.3 17.6842 11.6051C17.6842 11.9104 17.4368 12.1578 17.1317 12.1578Z" fill="url(#paint8_linear_1057_17508)"/>
<path d="M17.1317 14.3684H11.6053C11.3002 14.3684 11.0526 14.1209 11.0526 13.8157C11.0526 13.5106 11.3002 13.2631 11.6053 13.2631H17.1317C17.4368 13.2631 17.6842 13.5106 17.6842 13.8157C17.6842 14.1209 17.4368 14.3684 17.1317 14.3684Z" fill="url(#paint9_linear_1057_17508)"/>
<path d="M9.39461 2.76343H17.1312C17.4363 2.76343 17.6839 3.06854 17.6839 3.31611V6.63185C17.6839 6.93697 17.4365 7.18454 17.1312 7.18454H9.39461C9.08949 7.18454 8.84192 6.87943 8.84192 6.63185V3.31611C8.84192 3.011 9.08931 2.76343 9.39461 2.76343Z" fill="url(#paint10_linear_1057_17508)"/>
<path d="M19.8946 4.42126H23.763C24.0681 4.42126 24.3157 4.72638 24.3157 4.97395V8.28969C24.3157 8.59481 24.0683 8.84238 23.763 8.84238H19.8946C19.5895 8.84238 19.3419 8.53726 19.3419 8.28969V4.97395C19.3419 4.66884 19.5893 4.42126 19.8946 4.42126Z" fill="url(#paint11_linear_1057_17508)"/>
<path d="M2.76301 4.42126H6.63144C6.93655 4.42126 7.18413 4.72638 7.18413 4.97395V8.28969C7.18413 8.59481 6.93674 8.84238 6.63144 8.84238H2.76301C2.4579 8.84238 2.21033 8.53726 2.21033 8.28969V4.97395C2.21033 4.66884 2.45771 4.42126 2.76301 4.42126Z" fill="url(#paint12_linear_1057_17508)"/>
<path d="M24.8682 1.65787H20.4473C20.4473 1.21824 20.2726 0.796535 19.9616 0.485708C19.6508 0.174673 19.2291 0 18.7894 0H7.73666C7.29703 0 6.87533 0.174668 6.5645 0.485708C6.25347 0.796559 6.07879 1.21825 6.07879 1.65787H1.65787C1.21824 1.65787 0.796535 1.83254 0.485519 2.14358C0.174668 2.45443 0 2.87612 0 3.31574V17.6843C0 18.1239 0.174668 18.5456 0.485519 18.8564C0.796554 19.1675 1.21825 19.3421 1.65787 19.3421H6.07879C6.07879 19.7818 6.25346 20.2035 6.5645 20.5143C6.87535 20.8253 7.29704 21 7.73666 21H18.7894C19.2291 21 19.6508 20.8253 19.9616 20.5143C20.2726 20.2034 20.4473 19.7817 20.4473 19.3421H24.8682C25.3079 19.3421 25.7296 19.1675 26.0406 18.8564C26.3514 18.5456 26.5261 18.1239 26.5261 17.6843V3.31574C26.5261 2.87611 26.3514 2.45441 26.0406 2.14358C25.7296 1.83254 25.3079 1.65787 24.8682 1.65787ZM1.65806 18.2366C1.35294 18.2366 1.10537 17.9892 1.10537 17.6841V3.31555C1.10537 3.01044 1.35294 2.76305 1.65806 2.76305H6.07898V10.4996H4.9738C4.66868 10.4996 4.42111 10.747 4.42111 11.0523C4.42111 11.3574 4.66868 11.6048 4.9738 11.6048H6.07898V12.71L4.9738 12.7102C4.66868 12.7102 4.42111 12.9576 4.42111 13.2627C4.42111 13.568 4.66868 13.8154 4.9738 13.8154H6.07898V14.9205H4.9738C4.66868 14.9205 4.42111 15.1681 4.42111 15.4732C4.42111 15.7783 4.66868 16.0259 4.9738 16.0259H6.07898V18.2365L1.65806 18.2366ZM19.3418 19.3418V19.3419C19.3418 19.4885 19.2837 19.6289 19.1801 19.7327C19.0763 19.8363 18.9359 19.8944 18.7893 19.8944H7.73656C7.43145 19.8944 7.18407 19.6471 7.18407 19.3419V1.65768C7.18407 1.35257 7.43145 1.10518 7.73656 1.10518H18.7893C18.9359 1.10518 19.0763 1.16329 19.1801 1.2669C19.2837 1.3707 19.3418 1.51114 19.3418 1.65769V19.3418ZM25.4205 17.6839L25.4207 17.6841C25.4207 17.8306 25.3624 17.971 25.2588 18.0749C25.1552 18.1785 25.0146 18.2366 24.868 18.2366H20.4471V16.0262H23.7629C24.068 16.0262 24.3154 15.7786 24.3154 15.4735C24.3154 15.1684 24.068 14.9208 23.7629 14.9208H20.4471V13.8156H23.7629C24.068 13.8156 24.3154 13.5683 24.3154 13.263C24.3154 12.9578 24.068 12.7105 23.7629 12.7105H20.4471V11.6051H23.7629C24.068 11.6051 24.3154 11.3577 24.3154 11.0526C24.3154 10.7473 24.068 10.4999 23.7629 10.4999H20.4471V2.76334H24.868C25.0146 2.76334 25.1552 2.82144 25.2588 2.92506C25.3624 3.02886 25.4207 3.16929 25.4207 3.31584L25.4205 17.6839Z" fill="url(#paint13_linear_1057_17508)"/>
<defs>
<linearGradient id="paint0_linear_1057_17508" x1="15.9164" y1="16.0261" x2="12.7091" y2="20.0054" gradientUnits="userSpaceOnUse">
<stop stop-color="#FE1D16"/>
<stop offset="0.203125" stop-color="#FD3C14"/>
<stop offset="1" stop-color="#FA7311"/>
</linearGradient>
<linearGradient id="paint1_linear_1057_17508" x1="9.83702" y1="8.84216" x2="8.67794" y2="9.32148" gradientUnits="userSpaceOnUse">
<stop stop-color="#FE1D16"/>
<stop offset="0.203125" stop-color="#FD3C14"/>
<stop offset="1" stop-color="#FA7311"/>
</linearGradient>
<linearGradient id="paint2_linear_1057_17508" x1="9.83702" y1="11.0526" x2="8.67794" y2="11.5319" gradientUnits="userSpaceOnUse">
<stop stop-color="#FE1D16"/>
<stop offset="0.203125" stop-color="#FD3C14"/>
<stop offset="1" stop-color="#FA7311"/>
</linearGradient>
<linearGradient id="paint3_linear_1057_17508" x1="9.83702" y1="13.2631" x2="8.67788" y2="13.7423" gradientUnits="userSpaceOnUse">
<stop stop-color="#FE1D16"/>
<stop offset="0.203125" stop-color="#FD3C14"/>
<stop offset="1" stop-color="#FA7311"/>
</linearGradient>
<linearGradient id="paint4_linear_1057_17508" x1="3.20555" y1="10.5" x2="2.04647" y2="10.9793" gradientUnits="userSpaceOnUse">
<stop stop-color="#FE1D16"/>
<stop offset="0.203125" stop-color="#FD3C14"/>
<stop offset="1" stop-color="#FA7311"/>
</linearGradient>
<linearGradient id="paint5_linear_1057_17508" x1="3.20555" y1="12.7104" x2="2.04647" y2="13.1898" gradientUnits="userSpaceOnUse">
<stop stop-color="#FE1D16"/>
<stop offset="0.203125" stop-color="#FD3C14"/>
<stop offset="1" stop-color="#FA7311"/>
</linearGradient>
<linearGradient id="paint6_linear_1057_17508" x1="3.20555" y1="14.9209" x2="2.04641" y2="15.4002" gradientUnits="userSpaceOnUse">
<stop stop-color="#FE1D16"/>
<stop offset="0.203125" stop-color="#FD3C14"/>
<stop offset="1" stop-color="#FA7311"/>
</linearGradient>
<linearGradient id="paint7_linear_1057_17508" x1="17.0214" y1="8.8418" x2="15.8835" y2="11.6654" gradientUnits="userSpaceOnUse">
<stop stop-color="#FE1D16"/>
<stop offset="0.203125" stop-color="#FD3C14"/>
<stop offset="1" stop-color="#FA7311"/>
</linearGradient>
<linearGradient id="paint8_linear_1057_17508" x1="17.0214" y1="11.0526" x2="15.8835" y2="13.8762" gradientUnits="userSpaceOnUse">
<stop stop-color="#FE1D16"/>
<stop offset="0.203125" stop-color="#FD3C14"/>
<stop offset="1" stop-color="#FA7311"/>
</linearGradient>
<linearGradient id="paint9_linear_1057_17508" x1="17.0214" y1="13.2631" x2="15.8832" y2="16.087" gradientUnits="userSpaceOnUse">
<stop stop-color="#FE1D16"/>
<stop offset="0.203125" stop-color="#FD3C14"/>
<stop offset="1" stop-color="#FA7311"/>
</linearGradient>
<linearGradient id="paint10_linear_1057_17508" x1="16.8002" y1="2.76343" x2="10.3519" y2="8.09641" gradientUnits="userSpaceOnUse">
<stop stop-color="#FE1D16"/>
<stop offset="0.203125" stop-color="#FD3C14"/>
<stop offset="1" stop-color="#FA7311"/>
</linearGradient>
<linearGradient id="paint11_linear_1057_17508" x1="23.8187" y1="4.42127" x2="18.7971" y2="6.75741" gradientUnits="userSpaceOnUse">
<stop stop-color="#FE1D16"/>
<stop offset="0.203125" stop-color="#FD3C14"/>
<stop offset="1" stop-color="#FA7311"/>
</linearGradient>
<linearGradient id="paint12_linear_1057_17508" x1="6.68706" y1="4.42127" x2="1.66551" y2="6.75741" gradientUnits="userSpaceOnUse">
<stop stop-color="#FE1D16"/>
<stop offset="0.203125" stop-color="#FD3C14"/>
<stop offset="1" stop-color="#FA7311"/>
</linearGradient>
<linearGradient id="paint13_linear_1057_17508" x1="23.8752" y1="1.85102e-06" x2="-1.71863" y2="13.3689" gradientUnits="userSpaceOnUse">
<stop stop-color="#FE1D16"/>
<stop offset="0.203125" stop-color="#FD3C14"/>
<stop offset="1" stop-color="#FA7311"/>
</linearGradient>
</defs>
</svg>
