<svg width="30" height="30" viewBox="0 0 30 30" fill="none" xmlns="http://www.w3.org/2000/svg">
<path d="M29.3255 15.0569C28.4418 8.87235 26.1938 4.68867 22.4522 2.26663C19.0619 0.0715237 14.3212 -0.587536 10.0754 0.545951C1.20442 2.91641 -1.99557 11.5936 1.22181 20.1715C1.5672 21.0837 2.28915 21.8026 3.20285 22.144L23.144 29.6748C24.6606 30.2511 26.3626 30.0534 27.7068 29.145C29.0511 28.2367 29.8692 26.7311 29.8999 25.109C29.964 21.7487 29.7721 18.3884 29.3256 15.057L29.3255 15.0569ZM28.7592 22.2091L14.4691 16.4453C13.9617 16.2499 13.5203 15.9143 13.196 15.4776C12.8717 15.0412 12.6777 14.5217 12.637 13.9793C12.6065 13.2101 12.8999 12.4632 13.4455 11.9203C13.9911 11.3772 14.7393 11.0874 15.5085 11.1216H27.3257C27.7237 12.4621 28.0193 13.8311 28.2097 15.2162C28.5254 17.5348 28.7091 19.8696 28.7597 22.2093L28.7592 22.2091ZM28.7728 25.0889V25.0887C28.7482 26.3442 28.1145 27.5089 27.074 28.2115C26.0334 28.9141 24.716 29.0668 23.5424 28.6205L3.60128 21.0897C2.99125 20.8628 2.50849 20.3841 2.27711 19.7758C-0.701344 11.8367 2.13825 3.83453 10.3663 1.63466C14.3112 0.578839 18.7072 1.18512 21.8402 3.21269C24.1372 4.69992 25.8249 6.94178 26.9453 9.99455H15.5081L15.5078 9.9943C14.4291 9.96033 13.3849 10.3772 12.6265 11.1447C11.868 11.9124 11.4635 12.9614 11.5106 14.0396C11.5634 14.7955 11.8298 15.5213 12.2786 16.132C12.7276 16.7428 13.3404 17.2137 14.0463 17.4899L28.7782 23.4315C28.7825 23.9875 28.7822 24.5416 28.7721 25.0883L28.7728 25.0889Z" fill="#F14902"/>
</svg>
