<svg width="81" height="80" viewBox="0 0 81 80" fill="none" xmlns="http://www.w3.org/2000/svg">
<g clip-path="url(#clip0_698_2261)">
<path d="M74.25 7.5H61.75V6.25C61.75 2.80375 58.9463 0 55.5 0C53.4487 0 51.64 1.0075 50.5 2.53875C49.36 1.0075 47.5513 0 45.5 0C43.4487 0 41.64 1.0075 40.5 2.53875C39.36 1.0075 37.5513 0 35.5 0C33.4487 0 31.64 1.0075 30.5 2.53875C29.36 1.0075 27.5513 0 25.5 0C22.0537 0 19.25 2.80375 19.25 6.25V7.5H6.75C3.30375 7.5 0.5 10.3038 0.5 13.75V53.75C0.5 57.1963 3.30375 60 6.75 60H21.75V80H24.25V60H49.25V59.9363C49.6613 59.9775 50.0775 60 50.5 60H53V57.5H50.5C45.41 57.5 41.195 53.675 40.5775 48.75H56.75C58.8175 48.75 60.5 50.4325 60.5 52.5V80H63V60H74.25C77.6963 60 80.5 57.1963 80.5 53.75V13.75C80.5 10.3038 77.6963 7.5 74.25 7.5ZM55.5 2.5C57.5675 2.5 59.25 4.1825 59.25 6.25V11.25C59.25 13.3175 57.5675 15 55.5 15C53.4325 15 51.75 13.3175 51.75 11.25V6.25C51.75 4.1825 53.4325 2.5 55.5 2.5ZM45.5 2.5C47.5675 2.5 49.25 4.1825 49.25 6.25V11.25C49.25 13.3175 47.5675 15 45.5 15C43.4325 15 41.75 13.3175 41.75 11.25V6.25C41.75 4.1825 43.4325 2.5 45.5 2.5ZM35.5 2.5C37.5675 2.5 39.25 4.1825 39.25 6.25V11.25C39.25 13.3175 37.5675 15 35.5 15C33.4325 15 31.75 13.3175 31.75 11.25V6.25C31.75 4.1825 33.4325 2.5 35.5 2.5ZM21.75 6.25C21.75 4.1825 23.4325 2.5 25.5 2.5C27.5675 2.5 29.25 4.1825 29.25 6.25V11.25C29.25 13.3175 27.5675 15 25.5 15C23.4325 15 21.75 13.3175 21.75 11.25V6.25ZM78 53.75C78 55.8175 76.3175 57.5 74.25 57.5H63V52.5C63 49.0537 60.1963 46.25 56.75 46.25H39.25C38.56 46.25 38 46.8088 38 47.5C38 51.5913 39.985 55.2188 43.0325 57.5H6.75C4.6825 57.5 3 55.8175 3 53.75V13.75C3 11.6825 4.6825 10 6.75 10H19.25V11.25C19.25 14.6962 22.0537 17.5 25.5 17.5C27.5513 17.5 29.36 16.4925 30.5 14.9613C31.64 16.4925 33.4487 17.5 35.5 17.5C37.5513 17.5 39.36 16.4925 40.5 14.9613C41.64 16.4925 43.4487 17.5 45.5 17.5C47.5513 17.5 49.36 16.4925 50.5 14.9613C51.64 16.4925 53.4487 17.5 55.5 17.5C58.9463 17.5 61.75 14.6962 61.75 11.25V10H74.25C76.3175 10 78 11.6825 78 13.75V53.75Z" fill="#71717A"/>
<path d="M30.5 21.25H8C7.31 21.25 6.75 21.8088 6.75 22.5V46.25C6.75 46.9412 7.31 47.5 8 47.5H30.5C31.19 47.5 31.75 46.9412 31.75 46.25V22.5C31.75 21.8088 31.19 21.25 30.5 21.25ZM29.25 23.75V40.5375C28.0688 37.9875 26.1175 35.9288 23.6787 34.7725C24.0312 34.0875 24.25 33.3225 24.25 32.5V31.25C24.25 28.4925 22.0075 26.25 19.25 26.25C16.4925 26.25 14.25 28.4925 14.25 31.25V32.5C14.25 33.3225 14.4687 34.0875 14.8212 34.7725C12.3825 35.9288 10.4313 37.9888 9.25 40.5375V23.75H29.25ZM21.75 32.5C21.75 33.2463 21.415 33.9087 20.895 34.3675C20.8837 34.3762 20.8687 34.3825 20.8575 34.3925C20.5312 34.6687 19.9875 35 19.25 35C18.5125 35 17.9688 34.6687 17.6425 34.3925C17.6312 34.3825 17.6175 34.3775 17.605 34.3688C17.085 33.9088 16.75 33.2463 16.75 32.5V31.25C16.75 29.8713 17.8713 28.75 19.25 28.75C20.6287 28.75 21.75 29.8713 21.75 31.25V32.5ZM16.6075 36.7275C16.9612 36.95 17.3475 37.1175 17.7538 37.2463C17.8163 37.2663 17.8775 37.2875 17.9412 37.305C18.1363 37.3575 18.3325 37.3988 18.535 37.4288C18.57 37.4338 18.6037 37.435 18.6388 37.4388C18.8412 37.4638 19.0413 37.5 19.25 37.5C19.4587 37.5 19.6588 37.4638 19.8612 37.4388C19.8963 37.435 19.93 37.4338 19.965 37.4288C20.1675 37.3988 20.365 37.3587 20.5588 37.305C20.6225 37.2875 20.6838 37.2663 20.7463 37.2463C21.1525 37.1175 21.5375 36.95 21.8913 36.7275C25.165 37.9088 27.4888 41.1488 27.9113 45H10.5875C11.01 41.1488 13.335 37.9088 16.6075 36.7275Z" fill="#71717A"/>
<path d="M20.5 50H9.25V52.5H20.5V50Z" fill="#71717A"/>
<path d="M28 50H23V52.5H28V50Z" fill="#71717A"/>
<path d="M50.5 21.25H36.75V23.75H50.5V21.25Z" fill="#71717A"/>
<path d="M68 21.25H54.25V23.75H68V21.25Z" fill="#71717A"/>
<path d="M43 27.5H36.75V30H43V27.5Z" fill="#71717A"/>
<path d="M51.75 27.5H46.75V30H51.75V27.5Z" fill="#71717A"/>
<path d="M43 33.75H36.75V36.25H43V33.75Z" fill="#71717A"/>
<path d="M39.25 40H36.75V42.5H39.25V40Z" fill="#71717A"/>
<path d="M44.25 40H41.75V42.5H44.25V40Z" fill="#71717A"/>
<path d="M49.25 40H46.75V42.5H49.25V40Z" fill="#71717A"/>
<path d="M63 40H51.75V42.5H63V40Z" fill="#71717A"/>
<path d="M73 40H65.5V42.5H73V40Z" fill="#71717A"/>
<path d="M73 27.5H64.25C63.56 27.5 63 28.0588 63 28.75V35C63 35.6912 63.56 36.25 64.25 36.25H73C73.69 36.25 74.25 35.6912 74.25 35V28.75C74.25 28.0588 73.69 27.5 73 27.5ZM71.75 33.75H65.5V30H71.75V33.75Z" fill="#71717A"/>
</g>
<defs>
<clipPath id="clip0_698_2261">
<rect width="80" height="80" fill="white" transform="translate(0.5)"/>
</clipPath>
</defs>
</svg>
