<svg width="28" height="22" viewBox="0 0 28 22" fill="none" xmlns="http://www.w3.org/2000/svg">
<path d="M5.86376 5.99065H25.2488C26.037 5.99065 26.655 6.60466 26.655 7.39458V18.4208C26.655 19.2108 26.0369 19.8247 25.2488 19.8247H5.86376C5.07333 19.8247 4.45937 19.2107 4.45937 18.4208L4.45959 7.39458C4.45982 6.60438 5.07378 5.99042 5.86376 5.99042L5.86376 5.99065ZM2.4895 2.175H22.4017C23.0474 2.175 23.5425 2.67048 23.5425 3.31197V4.64395H5.86382C4.35164 4.64395 3.1129 5.88086 3.1129 7.39487V16.0095H2.4895C1.84423 16.0095 1.34692 15.5147 1.34692 14.8744V3.31237C1.34692 2.67041 1.8442 2.1754 2.4895 2.1754V2.175ZM2.4895 0.830078C1.1242 0.830078 0 1.94672 0 3.31174V14.8743C0 16.2396 1.12403 17.356 2.4895 17.356H3.1129V18.4211C3.1129 19.9324 4.35205 21.17 5.86382 21.17H25.2489C26.7608 21.17 27.9998 19.9324 27.9998 18.4211L28 7.39492C28 5.8812 26.7609 4.64401 25.2491 4.64401H24.8875V3.31202C24.8875 1.94672 23.7671 0.830365 22.4016 0.830365L2.4895 0.830078Z" fill="#C94403"/>
<path d="M6.49101 16.5494C6.11627 16.5438 5.80859 16.8461 5.80859 17.2229C5.80859 17.5976 6.11626 17.9004 6.49101 17.8945H9.02299C9.39974 17.9001 9.70609 17.5978 9.70609 17.2229C9.70609 16.8463 9.39976 16.5441 9.02299 16.5494H6.49101Z" fill="#C94403"/>
<path d="M11.6922 16.5494C11.3157 16.5438 11.0098 16.8461 11.0098 17.2229C11.0098 17.5976 11.3156 17.9004 11.6922 17.8945H14.2213C14.5978 17.9001 14.9037 17.5978 14.9037 17.2229C14.9037 16.8463 14.5978 16.5441 14.2213 16.5494H11.6922Z" fill="#C94403"/>
<path d="M16.8904 16.5494C16.5157 16.5438 16.2075 16.8461 16.2075 17.2229C16.2075 17.5976 16.5156 17.9004 16.8904 17.8945H19.4224C19.7967 17.9001 20.1048 17.5978 20.1048 17.2229C20.1048 16.8463 19.7967 16.5441 19.4224 16.5494H16.8904Z" fill="#C94403"/>
<path d="M22.0896 16.5494C21.7149 16.5438 21.4067 16.8461 21.4067 17.2229C21.4067 17.5976 21.7149 17.9004 22.0896 17.8945H24.6198C24.9946 17.9001 25.3027 17.5978 25.3027 17.2229C25.3027 16.8463 24.9946 16.5441 24.6198 16.5494H22.0896Z" fill="#C94403"/>
<path d="M7.44098 9.07765H9.3867C9.55506 9.07765 9.67066 9.19437 9.67066 9.36296V11.2961C9.67066 11.465 9.55529 11.5797 9.3867 11.5797H7.44098C7.27217 11.5797 7.15747 11.465 7.15747 11.2961V9.36296C7.15702 9.19459 7.27217 9.07765 7.44098 9.07765ZM7.44098 7.73096C6.54838 7.73096 5.81055 8.47285 5.81055 9.36322V11.2964C5.81055 12.189 6.54843 12.9268 7.44098 12.9268H9.3867C10.2771 12.9268 11.0171 12.1892 11.0171 11.2964V9.36322C11.0171 8.47285 10.277 7.73096 9.3867 7.73096H7.44098Z" fill="#C94403"/>
</svg>
