<svg width="40" height="40" viewBox="0 0 40 40" fill="none" xmlns="http://www.w3.org/2000/svg">
<path fill-rule="evenodd" clip-rule="evenodd" d="M19.9998 39.2C25.092 39.2 29.9756 37.1772 33.5763 33.5765C37.177 29.9758 39.1998 25.0922 39.1998 20C39.1998 14.9079 37.177 10.0243 33.5763 6.4236C29.9756 2.8229 25.092 0.800049 19.9998 0.800049C14.9076 0.800049 10.0241 2.8229 6.42335 6.4236C2.82266 10.0243 0.799805 14.9079 0.799805 20C0.799805 25.0922 2.82266 29.9758 6.42335 33.5765C10.0241 37.1772 14.9076 39.2 19.9998 39.2ZM28.8966 16.8968C29.3338 16.4442 29.5757 15.838 29.5702 15.2087C29.5648 14.5794 29.3123 13.9775 28.8674 13.5325C28.4224 13.0875 27.8204 12.8351 27.1912 12.8296C26.5619 12.8242 25.9556 13.0661 25.503 13.5032L17.5998 21.4064L14.4966 18.3032C14.044 17.8661 13.4377 17.6242 12.8084 17.6296C12.1792 17.6351 11.5772 17.8875 11.1322 18.3325C10.6873 18.7775 10.4349 19.3794 10.4294 20.0087C10.4239 20.638 10.6658 21.2442 11.103 21.6968L15.903 26.4968C16.3531 26.9468 16.9634 27.1995 17.5998 27.1995C18.2362 27.1995 18.8465 26.9468 19.2966 26.4968L28.8966 16.8968Z" fill="#14B8A6"/>
</svg>
