<svg width="68" height="67" viewBox="0 0 68 67" fill="none" xmlns="http://www.w3.org/2000/svg">
<path d="M28.8211 5.17163L27.761 12.3171C26.3506 12.7404 24.9868 13.3056 23.6906 14.0044L17.8884 9.69902L10.5609 17.0269L14.8579 22.8169C14.1581 24.1182 13.5928 25.4876 13.1706 26.9035L6.0332 27.9596V38.3177L13.1787 39.3778C13.6019 40.7883 14.1672 42.152 14.8659 43.4482L10.5609 49.2501L17.8884 56.578L23.6785 52.281C24.9798 52.9808 26.3491 53.546 27.7651 53.9682L28.8211 61.1056H39.1793L40.2394 53.9601C41.6498 53.5369 43.0136 52.9716 44.3098 52.2729L50.112 56.578L57.4395 49.2501L53.1425 43.4604C53.8423 42.159 54.4076 40.7897 54.8298 39.3737L61.9672 38.3177V27.9596L54.8217 26.8995C54.3985 25.489 53.8332 24.1253 53.1344 22.829L57.4395 17.0269L50.112 9.69902L44.3219 13.9963C43.0206 13.2965 41.6513 12.7312 40.2353 12.309L39.1793 5.17163H28.8211Z" fill="#1B1B1B"/>
<path d="M28.8211 22.991C26.9507 23.9455 25.3804 25.3984 24.2837 27.1891C23.1869 28.9798 22.6064 31.0388 22.6062 33.1387C22.6062 36.1606 23.8066 39.0586 25.9434 41.1954C28.0802 43.3321 30.9783 44.5327 34.0002 44.5327C37.022 44.5327 39.9201 43.3321 42.0569 41.1954C44.1937 39.0586 45.3941 36.1606 45.3941 33.1387C45.3917 31.0409 44.8101 28.9843 43.7135 27.1959C42.6169 25.4075 41.0478 23.9567 39.1792 23.0031V33.1387L34.0002 36.2462L28.8211 33.1387V22.991Z" fill="#353133"/>
<path d="M39.1792 39.3535V61.1056H28.821V39.3535" fill="#353133"/>
<path d="M28.8211 4.13757C28.5731 4.13775 28.3334 4.22695 28.1456 4.38881C27.9577 4.55068 27.8342 4.77455 27.7974 5.01976L26.8223 11.5906C25.7991 11.932 24.8048 12.3422 23.8402 12.8247L18.5074 8.86752C18.3075 8.7193 18.061 8.64809 17.8128 8.66673C17.5647 8.68537 17.3315 8.79277 17.156 8.96918L9.82842 16.2968C9.65311 16.4721 9.5465 16.7042 9.52794 16.9515C9.50937 17.1987 9.5801 17.4446 9.72727 17.6441L13.6804 22.9729C13.1983 23.9397 12.7865 24.9375 12.4463 25.9628L5.88342 26.9341C5.63686 26.9701 5.41155 27.0939 5.2488 27.2826C5.08605 27.4713 4.99677 27.7121 4.99732 27.9613V38.3195C4.99752 38.5674 5.08664 38.8071 5.24849 38.9949C5.41034 39.1827 5.63419 39.3063 5.87938 39.3431L12.4544 40.3183C12.7952 41.3394 13.2069 42.3335 13.6884 43.2962L9.72727 48.6331C9.57903 48.8329 9.50767 49.0794 9.52624 49.3275C9.54482 49.5756 9.65208 49.809 9.82842 49.9845L17.156 57.3121C17.332 57.4879 17.5654 57.5944 17.8136 57.6123C18.0617 57.6301 18.308 57.5582 18.5074 57.4095L23.8321 53.4604C24.8 53.9431 25.7997 54.3537 26.8263 54.6945L27.7974 61.2571C27.8333 61.503 27.9565 61.7279 28.1444 61.8906C28.3324 62.0532 28.5725 62.1429 28.8211 62.1432H39.1792C39.4278 62.1429 39.6679 62.0533 39.8559 61.8906C40.0438 61.7279 40.167 61.5031 40.2029 61.2571L41.178 54.6861C42.2011 54.3447 43.1955 53.9345 44.16 53.4521L49.4928 57.4092C49.6923 57.5579 49.9385 57.6299 50.1867 57.612C50.4348 57.5941 50.6682 57.4876 50.8443 57.3118L58.1718 49.9843C58.3482 49.8087 58.4554 49.5756 58.474 49.3275C58.4926 49.0794 58.4212 48.8327 58.273 48.6328L54.3199 43.3041C54.802 42.3372 55.2137 41.3392 55.554 40.314L62.1168 39.3429C62.3627 39.3069 62.5875 39.1838 62.7502 38.9959C62.9128 38.8081 63.0025 38.568 63.0029 38.3195V27.9613C63.0037 27.7127 62.9151 27.472 62.7531 27.2833C62.5912 27.0946 62.3668 26.9705 62.1209 26.9336L55.5459 25.9585C55.2051 24.9374 54.7933 23.9432 54.3118 22.9805L58.273 17.6436C58.4202 17.4441 58.4909 17.1985 58.4723 16.9512C58.4538 16.704 58.3471 16.4716 58.1718 16.2963L50.8442 8.96868C50.6687 8.79226 50.4356 8.68487 50.1874 8.66623C49.9393 8.64759 49.6927 8.71905 49.4928 8.86727L44.1681 12.8161C43.2002 12.3334 42.2005 11.9228 41.174 11.582L40.2029 5.01925C40.166 4.77412 40.0424 4.55047 39.8545 4.38869C39.6667 4.22691 39.4271 4.13774 39.1792 4.13757H28.8211ZM29.7153 6.2092H38.285L39.2116 12.4605C39.2403 12.6555 39.3241 12.8385 39.4531 12.9875C39.5821 13.1366 39.751 13.2457 39.9399 13.3021C41.2884 13.7042 42.5929 14.242 43.8323 14.9084C44.0056 15.0017 44.202 15.0436 44.3984 15.0293C44.5947 15.015 44.7829 14.9452 44.9409 14.8278L50.0107 11.0648L56.0759 17.126L52.3009 22.212C52.1841 22.3704 52.1148 22.5589 52.1012 22.7552C52.0876 22.9515 52.1302 23.1474 52.224 23.3204C52.8895 24.5551 53.4273 25.8536 53.8303 27.1968C53.8864 27.3852 53.995 27.5537 54.1433 27.6826C54.2916 27.8116 54.4735 27.8957 54.6679 27.9251L60.9313 28.8515V37.4253L54.68 38.3478C54.485 38.3765 54.3022 38.4603 54.1531 38.5893C54.004 38.7183 53.8948 38.8872 53.8384 39.0761C53.4363 40.4247 52.8985 41.7292 52.2321 42.9685C52.1382 43.1415 52.0956 43.3376 52.1092 43.5339C52.1229 43.7303 52.1921 43.9187 52.309 44.0771L56.0759 49.151L50.0107 55.2121L44.9288 51.4411C44.7708 51.3237 44.5826 51.2539 44.3862 51.2396C44.1899 51.2253 43.9935 51.2672 43.8201 51.3605C42.5857 52.0259 41.2831 52.5636 39.9399 52.9668C39.7517 53.0239 39.5837 53.1334 39.4555 53.2824C39.3272 53.4314 39.244 53.6138 39.2156 53.8084L38.285 60.0718H29.7153L28.7887 53.8162C28.7599 53.6212 28.6761 53.4385 28.5471 53.2895C28.4181 53.1404 28.2493 53.0313 28.0604 52.9749C26.7118 52.5728 25.4074 52.035 24.168 51.3685C23.9946 51.2753 23.7982 51.2334 23.6019 51.2477C23.4056 51.262 23.2174 51.3318 23.0593 51.4492L17.9895 55.2121L11.9243 49.151L15.6994 44.065C15.8162 43.9066 15.8854 43.7181 15.899 43.5218C15.9126 43.3255 15.8701 43.1293 15.7763 42.9563C15.1108 41.7217 14.573 40.4234 14.1699 39.0801C14.1138 38.8918 14.0053 38.7233 13.857 38.5943C13.7086 38.4654 13.5267 38.3813 13.3324 38.3518L7.06895 37.4253V28.8515L13.3202 27.9289C13.5153 27.9002 13.6981 27.8165 13.8472 27.6874C13.9963 27.5584 14.1054 27.3895 14.1618 27.2006C14.5639 25.852 15.1017 24.5475 15.7682 23.3082C15.862 23.1352 15.9046 22.9391 15.891 22.7428C15.8774 22.5464 15.8081 22.358 15.6913 22.1996L11.9243 17.1257L17.9895 11.0646L23.0715 14.8356C23.2295 14.953 23.4177 15.0228 23.614 15.0371C23.8104 15.0515 24.0067 15.0095 24.1801 14.9163C25.4146 14.2509 26.7171 13.7131 28.0604 13.3099C28.2485 13.2529 28.4165 13.1434 28.5448 12.9943C28.673 12.8453 28.7562 12.6631 28.7846 12.4686L29.7153 6.20908L29.7153 6.2092Z" fill="#F14902"/>
<path d="M28.7886 21.9569C28.6364 21.9623 28.4872 22.0011 28.3517 22.0707C24.1931 24.1929 21.5708 28.4724 21.5703 33.1412C21.5703 39.9938 27.1476 45.571 34.0001 45.571C40.8526 45.571 46.4299 39.9938 46.4299 33.1412C46.4245 28.4774 43.8029 24.2071 39.6485 22.0872C39.491 22.0071 39.3157 21.9688 39.1392 21.9756C38.9626 21.9825 38.7908 22.0341 38.64 22.1261C38.4891 22.2181 38.3643 22.3471 38.2774 22.5009C38.1905 22.6547 38.1443 22.8282 38.1433 23.0049V32.5538L34.0001 35.0381L29.8568 32.5538V22.9927C29.8569 22.854 29.829 22.7165 29.775 22.5886C29.7209 22.4608 29.6417 22.3451 29.5421 22.2485C29.4424 22.1519 29.3244 22.0763 29.195 22.0262C29.0655 21.9761 28.9274 21.9526 28.7886 21.9569ZM27.7852 25.3071V33.1405C27.7855 33.3189 27.8318 33.4943 27.9197 33.6495C28.0076 33.8048 28.1341 33.9346 28.2869 34.0266L33.466 37.134C33.6273 37.2311 33.8119 37.2822 34.0001 37.2822C34.1883 37.2822 34.3729 37.2311 34.5342 37.134L39.7133 34.0266C39.8661 33.9346 39.9926 33.8048 40.0805 33.6495C40.1684 33.4943 40.2147 33.3189 40.215 33.1405V25.3193C42.6398 27.2585 44.3545 29.9601 44.3582 33.1405C44.3582 38.8733 39.733 43.4986 34.0001 43.4986C28.2672 43.4986 23.6419 38.8733 23.6419 33.1405C23.6423 29.9566 25.3579 27.2489 27.7852 25.3071Z" fill="#F14902"/>
<path d="M28.8049 42.4464C28.6689 42.4485 28.5346 42.4776 28.4098 42.5316C28.2849 42.5857 28.1719 42.6636 28.0772 42.7613C27.9825 42.8589 27.908 42.9744 27.8579 43.1009C27.8078 43.2274 27.7832 43.3624 27.7853 43.4984V61.1073C27.7833 61.2445 27.8087 61.381 27.8599 61.5083C27.9111 61.6357 27.9871 61.7515 28.0834 61.8492C28.1798 61.947 28.2947 62.0246 28.4213 62.0776C28.5479 62.1306 28.6838 62.158 28.8211 62.158C28.9584 62.158 29.0943 62.1306 29.2209 62.0776C29.3475 62.0246 29.4624 61.947 29.5588 61.8492C29.6551 61.7515 29.7311 61.6357 29.7823 61.5083C29.8335 61.381 29.8589 61.2445 29.8569 61.1073V43.4984C29.8591 43.3597 29.8333 43.2219 29.7812 43.0933C29.7291 42.9647 29.6517 42.848 29.5536 42.7499C29.4555 42.6518 29.3387 42.5741 29.21 42.522C29.0814 42.4699 28.9437 42.4442 28.8049 42.4464ZM39.1631 42.4464C39.027 42.4485 38.8928 42.4776 38.7679 42.5316C38.643 42.5857 38.5301 42.6636 38.4354 42.7613C38.3407 42.8589 38.2662 42.9744 38.2161 43.1009C38.166 43.2274 38.1413 43.3624 38.1434 43.4984V61.1073C38.1415 61.2445 38.1668 61.381 38.218 61.5083C38.2692 61.6357 38.3452 61.7515 38.4416 61.8492C38.538 61.947 38.6528 62.0246 38.7794 62.0776C38.9061 62.1306 39.042 62.158 39.1792 62.158C39.3165 62.158 39.4524 62.1306 39.5791 62.0776C39.7057 62.0246 39.8205 61.947 39.9169 61.8492C40.0133 61.7515 40.0893 61.6357 40.1405 61.5083C40.1916 61.381 40.217 61.2445 40.2151 61.1073V43.4984C40.2172 43.3597 40.1915 43.2219 40.1394 43.0933C40.0873 42.9647 40.0099 42.848 39.9118 42.7499C39.8136 42.6518 39.6968 42.5741 39.5682 42.522C39.4396 42.4699 39.3018 42.4442 39.1631 42.4464Z" fill="#F14902"/>
</svg>
