<svg width="16" height="17" viewBox="0 0 16 17" fill="none" xmlns="http://www.w3.org/2000/svg">
<path fill-rule="evenodd" clip-rule="evenodd" d="M0.38999 0.907051C0.639775 0.65709 0.978512 0.516669 1.33171 0.516669C1.68491 0.516669 2.02364 0.65709 2.27343 0.907051L7.99167 6.63105L13.7099 0.907051C13.8328 0.779704 13.9798 0.678128 14.1423 0.608249C14.3048 0.53837 14.4796 0.501589 14.6564 0.50005C14.8333 0.498512 15.0087 0.532247 15.1724 0.599288C15.3361 0.66633 15.4848 0.765334 15.6099 0.890524C15.7349 1.01571 15.8338 1.16458 15.9008 1.32845C15.9678 1.49231 16.0015 1.66788 15.9999 1.84492C15.9984 2.02196 15.9617 2.19692 15.8919 2.35959C15.8221 2.52226 15.7206 2.66939 15.5934 2.79238L9.87511 8.51638L15.5934 14.2404C15.836 14.4919 15.9702 14.8287 15.9672 15.1783C15.9642 15.5278 15.8241 15.8623 15.5771 16.1095C15.3302 16.3567 14.9961 16.4969 14.6468 16.4999C14.2976 16.503 13.9611 16.3686 13.7099 16.1257L7.99167 10.4017L2.27343 16.1257C2.02221 16.3686 1.68575 16.503 1.3365 16.4999C0.987258 16.4969 0.653177 16.3567 0.406215 16.1095C0.159253 15.8623 0.0191681 15.5278 0.0161333 15.1783C0.0130984 14.8287 0.147356 14.4919 0.38999 14.2404L6.10824 8.51638L0.38999 2.79238C0.14028 2.54235 0 2.20327 0 1.84972C0 1.49617 0.14028 1.15709 0.38999 0.907051Z" fill="#F14902"/>
</svg>
