<svg width="17" height="17" viewBox="0 0 17 17" fill="none" xmlns="http://www.w3.org/2000/svg">
<path d="M14.9884 0.282715H7.10553C6.64729 0.283787 6.20837 0.466275 5.88437 0.790248C5.56039 1.11423 5.37791 1.55343 5.37684 2.0114V5.3766L2.23062 5.37687C1.71451 5.37687 1.21986 5.5816 0.85456 5.94604C0.489586 6.31048 0.283785 6.80491 0.282715 7.32072V14.7694C0.282715 15.286 0.48798 15.7815 0.853223 16.1467C1.21846 16.5119 1.71395 16.7172 2.23058 16.7172H9.67921C10.1951 16.7162 10.6895 16.5104 11.0539 16.1454C11.4183 15.7801 11.6231 15.2855 11.6231 14.7693V11.6231H14.9885C15.4465 11.622 15.8857 11.4395 16.2097 11.1156C16.5337 10.7916 16.7162 10.3527 16.7172 9.89441V2.01153C16.7162 1.55357 16.5337 1.11438 16.2097 0.790379C15.8857 0.466399 15.4465 0.283915 14.9885 0.282845L14.9884 0.282715ZM10.4704 14.7698C10.4704 15.2076 10.1167 15.5629 9.67914 15.5651H2.23051C1.79131 15.5651 1.43515 15.209 1.43515 14.7698V7.32112C1.4373 6.88352 1.79262 6.52981 2.23051 6.52981H5.37673V9.89501C5.3778 10.3532 5.56029 10.7922 5.88426 11.1162C6.20824 11.4401 6.64717 11.6226 7.10542 11.6237H10.4706L10.4704 14.7698ZM15.5646 9.89487C15.5646 10.2132 15.3065 10.471 14.9884 10.471H7.10557C6.78722 10.471 6.52943 10.2132 6.52943 9.89487V2.01199C6.52943 1.69391 6.78722 1.43586 7.10557 1.43586H14.9884C15.3057 1.438 15.5624 1.69472 15.5646 2.01199V9.89487Z" fill="#F14902"/>
</svg>
