<svg width="30" height="30" viewBox="0 0 30 30" fill="none" xmlns="http://www.w3.org/2000/svg">
<path d="M12.378 0.199951C12.2526 0.200043 12.1314 0.245139 12.0365 0.326971C11.9415 0.408804 11.8791 0.521989 11.8604 0.64596L11.3674 3.96798C10.8502 4.14058 10.3475 4.34796 9.85982 4.59189L7.1637 2.59128C7.06264 2.51634 6.93798 2.48034 6.81252 2.48977C6.68706 2.49919 6.56919 2.55348 6.48046 2.64268L2.77584 6.34729C2.68721 6.43593 2.63331 6.5533 2.62393 6.6783C2.61454 6.80329 2.6503 6.92761 2.7247 7.02848L4.72327 9.72256C4.47954 10.2114 4.27138 10.7158 4.09936 11.2341L0.781366 11.7252C0.656712 11.7434 0.542801 11.806 0.460519 11.9014C0.378236 11.9968 0.333097 12.1186 0.333375 12.2446V17.4813C0.333477 17.6067 0.378533 17.7279 0.460361 17.8228C0.542189 17.9178 0.65536 17.9803 0.77932 17.9989L4.10345 18.4919C4.27574 19.0081 4.48392 19.5107 4.72736 19.9974L2.7247 22.6956C2.64976 22.7967 2.61368 22.9212 2.62307 23.0467C2.63246 23.1721 2.68669 23.2901 2.77584 23.3789L6.48046 27.0835C6.56946 27.1723 6.68746 27.2262 6.81292 27.2352C6.93837 27.2443 7.06288 27.2079 7.1637 27.1327L9.85573 25.1362C10.3451 25.3802 10.8505 25.5878 11.3695 25.7601L11.8604 29.0779C11.8786 29.2023 11.9409 29.316 12.0359 29.3982C12.1309 29.4804 12.2523 29.5258 12.378 29.5259H17.6148C17.7404 29.5258 17.8619 29.4805 17.9569 29.3982C18.0519 29.316 18.1141 29.2023 18.1323 29.0779L18.6253 25.7559C19.1426 25.5833 19.6453 25.3759 20.1329 25.1319L22.829 27.1326C22.9299 27.2078 23.0544 27.2441 23.1798 27.2351C23.3053 27.2261 23.4233 27.1722 23.5123 27.0833L27.2169 23.3787C27.3061 23.29 27.3603 23.1721 27.3697 23.0467C27.3791 22.9212 27.343 22.7965 27.268 22.6955L25.2695 20.0014C25.5132 19.5126 25.7214 19.008 25.8934 18.4897L29.2114 17.9987C29.3357 17.9806 29.4493 17.9183 29.5316 17.8233C29.6138 17.7284 29.6592 17.607 29.6594 17.4813V12.2446C29.6598 12.1188 29.6149 11.9972 29.5331 11.9018C29.4512 11.8064 29.3377 11.7436 29.2134 11.725L25.8893 11.232C25.717 10.7157 25.5088 10.2131 25.2654 9.7264L27.268 7.02823C27.3424 6.92735 27.3782 6.80316 27.3688 6.67817C27.3594 6.55317 27.3055 6.43567 27.2169 6.34703L23.5123 2.64242C23.4235 2.55323 23.3057 2.49893 23.1802 2.48951C23.0548 2.48009 22.9301 2.51622 22.829 2.59115L20.137 4.58755C19.6477 4.34351 19.1423 4.13592 18.6233 3.96363L18.1323 0.645704C18.1136 0.521772 18.0512 0.408698 17.9562 0.326907C17.8612 0.245117 17.7401 0.200036 17.6148 0.199951H12.378ZM12.8301 1.24731H17.1627L17.6311 4.40779C17.6457 4.50639 17.688 4.59887 17.7533 4.67423C17.8185 4.74959 17.9038 4.80475 17.9993 4.83328C18.6811 5.03657 19.3406 5.30845 19.9672 5.64539C20.0549 5.69254 20.1542 5.71373 20.2534 5.7065C20.3527 5.69927 20.4478 5.66397 20.5277 5.6046L23.0909 3.70218L26.1573 6.76651L24.2487 9.33786C24.1897 9.41793 24.1547 9.51323 24.1478 9.61248C24.1409 9.71173 24.1624 9.81077 24.2098 9.89823C24.5463 10.5225 24.8182 11.179 25.0219 11.8581C25.0503 11.9533 25.1052 12.0385 25.1802 12.1037C25.2552 12.1689 25.3471 12.2114 25.4454 12.2263L28.612 12.6946V17.0293L25.4515 17.4957C25.3529 17.5102 25.2605 17.5525 25.1851 17.6178C25.1098 17.683 25.0546 17.7684 25.026 17.8639C24.8228 18.5457 24.5509 19.2052 24.2139 19.8318C24.1665 19.9192 24.1449 20.0184 24.1518 20.1176C24.1587 20.2169 24.1937 20.3122 24.2528 20.3923L26.1573 22.9575L23.0909 26.0218L20.5216 24.1153C20.4417 24.0559 20.3465 24.0206 20.2473 24.0134C20.148 24.0061 20.0487 24.0273 19.9611 24.0745C19.337 24.4109 18.6785 24.6828 17.9993 24.8866C17.9042 24.9155 17.8193 24.9708 17.7544 25.0462C17.6896 25.1215 17.6475 25.2137 17.6332 25.3121L17.1627 28.4787H12.8301L12.3616 25.3161C12.3471 25.2175 12.3047 25.1251 12.2395 25.0497C12.1743 24.9744 12.0889 24.9192 11.9934 24.8907C11.3116 24.6874 10.6521 24.4155 10.0255 24.0786C9.93787 24.0314 9.83859 24.0102 9.73932 24.0175C9.64006 24.0247 9.54491 24.06 9.46502 24.1194L6.90186 26.0218L3.83547 22.9575L5.74404 20.3861C5.80308 20.306 5.83809 20.2107 5.84497 20.1115C5.85186 20.0122 5.83033 19.9131 5.7829 19.8256C5.44646 19.2014 5.17455 18.545 4.97079 17.8659C4.94242 17.7707 4.88753 17.6855 4.81256 17.6203C4.73758 17.5551 4.64559 17.5126 4.54735 17.4977L1.38073 17.0293V12.6946L4.54121 12.2282C4.63983 12.2137 4.73225 12.1713 4.80762 12.1061C4.88299 12.0409 4.93818 11.9555 4.9667 11.86C5.16998 11.1781 5.44189 10.5186 5.77881 9.89209C5.82626 9.80462 5.8478 9.70549 5.84092 9.60622C5.83403 9.50694 5.79901 9.41168 5.73995 9.33159L3.83548 6.76639L6.90186 3.70205L9.47115 5.60857C9.55104 5.66793 9.64619 5.70323 9.74546 5.71046C9.84473 5.7177 9.944 5.69651 10.0317 5.64935C10.6558 5.31294 11.3143 5.04106 11.9934 4.83724C12.0885 4.80838 12.1735 4.75302 12.2383 4.67768C12.3031 4.60235 12.3452 4.51023 12.3596 4.41188L12.8301 1.24724L12.8301 1.24731Z" fill="#C94403"/>
<path d="M12.3615 9.20887C12.2846 9.21159 12.2091 9.23119 12.1406 9.26641C10.0382 10.3393 8.71241 12.5029 8.71216 14.8633C8.71216 18.3278 11.5319 21.1475 14.9963 21.1475C18.4607 21.1475 21.2804 18.3278 21.2804 14.8633C21.2777 12.5054 19.9523 10.3465 17.852 9.27472C17.7724 9.23426 17.6837 9.21488 17.5945 9.21833C17.5052 9.22179 17.4183 9.24791 17.3421 9.29441C17.2658 9.3409 17.2027 9.40613 17.1588 9.48388C17.1148 9.56163 17.0915 9.64938 17.091 9.73869V14.5663L14.9963 15.8224L12.9016 14.5663V9.73255C12.9016 9.66238 12.8875 9.59287 12.8602 9.52825C12.8329 9.46362 12.7928 9.40513 12.7424 9.35629C12.6921 9.30744 12.6324 9.26924 12.567 9.2439C12.5015 9.21857 12.4317 9.20669 12.3615 9.20887ZM11.8542 10.9026V14.863C11.8544 14.9532 11.8778 15.0418 11.9222 15.1203C11.9667 15.1988 12.0306 15.2644 12.1079 15.311L14.7263 16.882C14.8078 16.931 14.9011 16.9569 14.9963 16.9569C15.0914 16.9569 15.1848 16.931 15.2663 16.882L17.8847 15.311C17.962 15.2644 18.0259 15.1988 18.0704 15.1203C18.1148 15.0418 18.1382 14.9532 18.1384 14.863V10.9088C19.3643 11.8892 20.2312 13.2551 20.2331 14.863C20.2331 17.7613 17.8947 20.0997 14.9963 20.0997C12.0979 20.0997 9.75951 17.7613 9.75951 14.863C9.75968 13.2533 10.6271 11.8843 11.8542 10.9026Z" fill="#C94403"/>
<path d="M12.3698 19.5676C12.301 19.5686 12.2332 19.5833 12.17 19.6107C12.1069 19.638 12.0498 19.6774 12.0019 19.7267C11.954 19.7761 11.9164 19.8345 11.891 19.8984C11.8657 19.9624 11.8532 20.0307 11.8543 20.0994V29.002C11.8533 29.0713 11.8662 29.1403 11.892 29.2047C11.9179 29.2691 11.9563 29.3276 12.005 29.3771C12.0538 29.4265 12.1118 29.4657 12.1759 29.4925C12.2399 29.5193 12.3086 29.5332 12.378 29.5332C12.4474 29.5332 12.5161 29.5193 12.5801 29.4925C12.6441 29.4657 12.7022 29.4265 12.7509 29.3771C12.7997 29.3276 12.8381 29.2691 12.864 29.2047C12.8898 29.1403 12.9026 29.0713 12.9017 29.002V20.0994C12.9028 20.0293 12.8898 19.9596 12.8634 19.8946C12.8371 19.8296 12.7979 19.7706 12.7483 19.721C12.6987 19.6714 12.6397 19.6321 12.5746 19.6058C12.5096 19.5795 12.44 19.5665 12.3698 19.5676ZM17.6066 19.5676C17.5378 19.5686 17.4699 19.5833 17.4068 19.6107C17.3437 19.638 17.2866 19.6774 17.2387 19.7267C17.1908 19.7761 17.1532 19.8345 17.1278 19.8984C17.1025 19.9624 17.09 20.0307 17.0911 20.0994V29.002C17.0901 29.0713 17.1029 29.1403 17.1288 29.2047C17.1547 29.2691 17.1931 29.3276 17.2418 29.3771C17.2906 29.4265 17.3486 29.4657 17.4126 29.4925C17.4767 29.5193 17.5454 29.5332 17.6148 29.5332C17.6842 29.5332 17.7529 29.5193 17.8169 29.4925C17.8809 29.4657 17.939 29.4265 17.9877 29.3771C18.0364 29.3276 18.0749 29.2691 18.1007 29.2047C18.1266 29.1403 18.1394 29.0713 18.1385 29.002V20.0994C18.1395 20.0293 18.1265 19.9596 18.1002 19.8946C18.0739 19.8296 18.0347 19.7706 17.9851 19.721C17.9355 19.6714 17.8764 19.6321 17.8114 19.6058C17.7464 19.5795 17.6767 19.5665 17.6066 19.5676Z" fill="#C94403"/>
</svg>
