<svg width="24" height="18" viewBox="0 0 24 18" fill="none" xmlns="http://www.w3.org/2000/svg">
<path d="M14.0005 15.6314H10.0004C9.64312 15.6314 9.31299 15.4509 9.13437 15.1578C8.95574 14.8648 8.95574 14.5035 9.13437 14.2104C9.31299 13.9173 9.64312 13.7368 10.0004 13.7368H14.0005C14.3577 13.7368 14.6878 13.9173 14.8665 14.2104C15.0451 14.5035 15.0451 14.8647 14.8665 15.1578C14.6878 15.4509 14.3577 15.6314 14.0005 15.6314Z" fill="#F14902"/>
<path d="M9 8.05283C9 8.31436 8.77617 8.5264 8.49994 8.5264C8.22389 8.5264 8.00006 8.31436 8.00006 8.05283C8.00006 7.79115 8.22389 7.5791 8.49994 7.5791C8.77617 7.5791 9 7.79115 9 8.05283Z" fill="#F14902"/>
<path d="M9 9.9472C9 10.2089 8.77617 10.4209 8.49994 10.4209C8.22389 10.4209 8.00006 10.2089 8.00006 9.9472C8.00006 9.68568 8.22389 9.47363 8.49994 9.47363C8.77617 9.47363 9 9.68568 9 9.9472Z" fill="#F14902"/>
<path d="M9 11.8421C9 12.1037 8.77617 12.3159 8.49994 12.3159C8.22389 12.3159 8.00006 12.1037 8.00006 11.8421C8.00006 11.5806 8.22389 11.3684 8.49994 11.3684C8.77617 11.3684 9 11.5806 9 11.8421Z" fill="#F14902"/>
<path d="M3.00009 9.47373C3.00009 9.73526 2.77626 9.9473 2.50003 9.9473C2.22398 9.9473 2.00015 9.73525 2.00015 9.47373C2.00015 9.21205 2.22398 9 2.50003 9C2.77626 9 3.00009 9.21205 3.00009 9.47373Z" fill="#F14902"/>
<path d="M3.00009 11.3683C3.00009 11.63 2.77626 11.8421 2.50003 11.8421C2.22398 11.8421 2.00015 11.63 2.00015 11.3683C2.00015 11.1068 2.22398 10.8948 2.50003 10.8948C2.77626 10.8948 3.00009 11.1068 3.00009 11.3683Z" fill="#F14902"/>
<path d="M3.00009 13.263C3.00009 13.5246 2.77626 13.7368 2.50003 13.7368C2.22398 13.7368 2.00015 13.5246 2.00015 13.263C2.00015 13.0015 2.22398 12.7893 2.50003 12.7893C2.77626 12.7893 3.00009 13.0015 3.00009 13.263Z" fill="#F14902"/>
<path d="M15.5001 8.52591H10.5C10.224 8.52591 9.99997 8.31387 9.99997 8.05234C9.99997 7.79066 10.224 7.57861 10.5 7.57861H15.5001C15.7762 7.57861 16 7.79066 16 8.05234C16 8.31387 15.7762 8.52591 15.5001 8.52591Z" fill="#F14902"/>
<path d="M15.5001 10.4209H10.5C10.224 10.4209 9.99997 10.2089 9.99997 9.9472C9.99997 9.68568 10.224 9.47363 10.5 9.47363H15.5001C15.7762 9.47363 16 9.68568 16 9.9472C16 10.2089 15.7762 10.4209 15.5001 10.4209Z" fill="#F14902"/>
<path d="M15.5001 12.3159H10.5C10.224 12.3159 9.99997 12.1037 9.99997 11.8421C9.99997 11.5806 10.224 11.3684 10.5 11.3684H15.5001C15.7762 11.3684 16 11.5806 16 11.8421C16 12.1037 15.7762 12.3159 15.5001 12.3159Z" fill="#F14902"/>
<path d="M8.50012 2.27368H15.5C15.7761 2.27368 16.0001 2.4829 16.0001 2.65266V4.92626C16.0001 5.13548 15.7762 5.30524 15.5 5.30524H8.50012C8.22406 5.30524 8.00006 5.09602 8.00006 4.92626V2.65266C8.00006 2.44344 8.22389 2.27368 8.50012 2.27368Z" fill="#F14902"/>
<path d="M18.045 3.78955H21.156C21.4014 3.78955 21.6005 3.94646 21.6005 4.07378V5.77898C21.6005 5.9359 21.4016 6.06322 21.156 6.06322H18.045C17.7996 6.06322 17.6005 5.9063 17.6005 5.77898V4.07378C17.6005 3.91687 17.7995 3.78955 18.045 3.78955Z" fill="#F14902"/>
<path d="M2.84438 3.78955H5.95542C6.2008 3.78955 6.3999 3.94646 6.3999 4.07378V5.77898C6.3999 5.9359 6.20095 6.06322 5.95542 6.06322H2.84438C2.599 6.06322 2.3999 5.9063 2.3999 5.77898V4.07378C2.3999 3.91687 2.59885 3.78955 2.84438 3.78955Z" fill="#F14902"/>
<path d="M22.5 1.42103H18.5001C18.5001 1.04421 18.3421 0.682745 18.0606 0.416321C17.7794 0.14972 17.3979 0 17.0001 0H6.99989C6.60213 0 6.22058 0.149716 5.93936 0.416321C5.65794 0.682765 5.4999 1.04421 5.4999 1.42103H1.49999C1.10223 1.42103 0.720681 1.57075 0.439283 1.83735C0.158035 2.1038 0 2.46525 0 2.84206V15.1579C0 15.5348 0.158035 15.8962 0.439283 16.1626C0.720698 16.4292 1.10223 16.579 1.49999 16.579H5.4999C5.4999 16.9558 5.65794 17.3173 5.93936 17.5837C6.22061 17.8503 6.60214 18 6.99989 18H17.0001C17.3979 18 17.7794 17.8503 18.0606 17.5837C18.3421 17.3172 18.5001 16.9558 18.5001 16.579H22.5C22.8978 16.579 23.2793 16.4293 23.5607 16.1626C23.842 15.8962 24 15.5348 24 15.1579V2.84206C24 2.46524 23.842 2.10378 23.5607 1.83735C23.2793 1.57075 22.8978 1.42103 22.5 1.42103ZM1.50016 15.6313C1.2241 15.6313 1.00011 15.4193 1.00011 15.1578V2.8419C1.00011 2.58037 1.2241 2.36833 1.50016 2.36833H5.50007V8.99967H4.50014C4.22408 8.99967 4.00009 9.21172 4.00009 9.47341C4.00009 9.73493 4.22408 9.94697 4.50014 9.94697H5.50007V10.8943L4.50014 10.8944C4.22408 10.8944 4.00009 11.1065 4.00009 11.368C4.00009 11.6297 4.22408 11.8417 4.50014 11.8417H5.50007V12.789H4.50014C4.22408 12.789 4.00009 13.0012 4.00009 13.2628C4.00009 13.5243 4.22408 13.7365 4.50014 13.7365H5.50007V15.6313L1.50016 15.6313ZM17.4999 16.5786V16.5788C17.4999 16.7044 17.4473 16.8248 17.3536 16.9138C17.2597 17.0026 17.1326 17.0524 17 17.0524H6.9998C6.72374 17.0524 6.49992 16.8403 6.49992 16.5788V1.42087C6.49992 1.15934 6.72375 0.9473 6.9998 0.9473H17C17.1326 0.9473 17.2597 0.997101 17.3536 1.08592C17.4473 1.17489 17.4999 1.29526 17.4999 1.42087V16.5786ZM22.9997 15.1576L22.9999 15.1578C22.9999 15.2834 22.9472 15.4038 22.8534 15.4927C22.7597 15.5815 22.6324 15.6313 22.4998 15.6313H18.4999V13.7367H21.4999C21.776 13.7367 21.9998 13.5245 21.9998 13.263C21.9998 13.0015 21.776 12.7893 21.4999 12.7893H18.4999V11.842H21.4999C21.776 11.842 21.9998 11.6299 21.9998 11.3682C21.9998 11.1067 21.776 10.8947 21.4999 10.8947H18.4999V9.94722H21.4999C21.776 9.94722 21.9998 9.73517 21.9998 9.47365C21.9998 9.21196 21.776 8.99992 21.4999 8.99992H18.4999V2.36858H22.4998C22.6324 2.36858 22.7597 2.41838 22.8534 2.50719C22.9472 2.59616 22.9999 2.71654 22.9999 2.84215L22.9997 15.1576Z" fill="#F14902"/>
</svg>
