<svg width="44" height="44" viewBox="0 0 24 24" fill="none" xmlns="http://www.w3.org/2000/svg">
<path fill-rule="evenodd" clip-rule="evenodd" d="M19.2 2.3999H4.80002C4.1635 2.3999 3.55306 2.65276 3.10297 3.10285C2.65288 3.55293 2.40002 4.16338 2.40002 4.7999V19.1999C2.40002 19.8364 2.65288 20.4469 3.10297 20.897C3.55306 21.347 4.1635 21.5999 4.80002 21.5999H19.2C19.8365 21.5999 20.447 21.347 20.8971 20.897C21.3472 20.4469 21.6 19.8364 21.6 19.1999V4.7999C21.6 4.16338 21.3472 3.55293 20.8971 3.10285C20.447 2.65276 19.8365 2.3999 19.2 2.3999ZM4.80002 19.1999V4.7999H19.2V19.1999H4.80002ZM14.9364 9.93112C14.8887 9.83565 14.8164 9.75463 14.727 9.69642C14.6375 9.6382 14.5342 9.60489 14.4276 9.59992C14.3207 9.59074 14.2135 9.61229 14.1184 9.66204C14.0234 9.71179 13.9446 9.78766 13.8912 9.88072L11.2908 14.0399L9.4248 12.1751C9.36105 12.1135 9.28503 12.0661 9.2017 12.0359C9.11836 12.0057 9.0296 11.9935 8.9412 11.9999C8.85273 12.0087 8.76733 12.0371 8.69116 12.083C8.615 12.1288 8.54998 12.191 8.5008 12.2651L6.1008 15.8651C6.04003 15.9555 6.005 16.0607 5.99948 16.1695C5.99395 16.2783 6.01814 16.3865 6.06945 16.4826C6.12075 16.5786 6.19724 16.6589 6.2907 16.7148C6.38417 16.7707 6.49109 16.8002 6.6 16.7999H17.4C17.5023 16.7999 17.6029 16.7737 17.6923 16.7239C17.7816 16.6741 17.8568 16.6022 17.9105 16.5151C17.9643 16.4281 17.9949 16.3287 17.9994 16.2265C18.0039 16.1243 17.9822 16.0226 17.9364 15.9311L14.9364 9.93112ZM9.60002 8.3999C9.60002 9.06264 9.06277 9.5999 8.40002 9.5999C7.73728 9.5999 7.20002 9.06264 7.20002 8.3999C7.20002 7.73716 7.73728 7.1999 8.40002 7.1999C9.06277 7.1999 9.60002 7.73716 9.60002 8.3999Z" fill="#F14902"/>
</svg>
