<svg width="68" height="68" viewBox="0 0 68 68" fill="none" xmlns="http://www.w3.org/2000/svg">
<path d="M28.2966 4.57721C27.3553 4.61532 26.4435 4.79968 25.6914 5.4146C24.9392 6.02966 24.5617 7.07908 24.6214 8.12218C24.7406 10.2083 26.0296 12.7142 28.7246 16.6078C30.4788 19.1422 31.2649 20.7055 32.7813 23.4372C32.8898 23.6337 33.0487 23.7976 33.2417 23.9121C33.4347 24.0266 33.6548 24.0875 33.8792 24.0885H40.1876C40.4362 24.0876 40.679 24.0132 40.8854 23.8746C42.185 23.0082 45.8108 20.1301 48.7941 16.7382C50.2858 15.0423 51.6002 13.248 52.3019 11.4161C53.0036 9.58418 52.9978 7.44113 51.5296 5.97301C50.7152 5.15858 49.5728 5.08785 48.636 5.23796C47.6991 5.38802 46.7862 5.7386 45.8912 6.10327C44.9961 6.4677 44.1246 6.84798 43.3976 7.09884C42.6706 7.34989 42.0829 7.4089 41.974 7.38698C39.7685 6.94585 37.2324 6.22521 34.8283 5.61915C32.4241 5.01305 30.1792 4.49774 28.2966 4.57706V4.57721Z" fill="#353133"/>
<path d="M36.9123 26.61L33.2371 26.6196C33.0644 26.619 32.8934 26.6539 32.7347 26.7221C27.8371 28.8604 22.0307 32.9234 19.969 38.8364C19.8932 39.0514 19.8771 39.2829 19.9224 39.5063L24.6304 62.1532C24.6893 62.4376 24.8446 62.6929 25.0701 62.876C25.2956 63.0592 25.5774 63.1588 25.8679 63.1581C25.8679 63.1581 31.4322 63.1343 37.0052 63.1581C37.0176 63.1583 37.03 63.1583 37.0424 63.1581C44.2633 62.9666 49.497 60.274 52.4132 55.9658C55.3294 51.6576 55.8807 45.912 54.3392 39.7948C54.3393 39.7884 54.3393 39.7821 54.3392 39.7757C52.62 33.3597 46.4386 28.9717 41.2852 26.7217C41.1265 26.6535 40.9555 26.6186 40.7827 26.6192L37.1075 26.6098H36.9216C36.9184 26.6097 36.9152 26.6097 36.9121 26.6098L36.9123 26.61Z" fill="#353133"/>
<path d="M36.9119 26.6105L33.2364 26.6201C33.0639 26.619 32.8929 26.6534 32.7342 26.7211C29.3967 28.1783 25.6403 30.5331 22.9314 33.7544C25.2153 31.7996 27.8206 30.2865 30.2134 29.2419C30.3721 29.1742 30.543 29.1398 30.7156 29.1408L34.391 29.1314C34.3943 29.1314 34.3977 29.1314 34.401 29.1314H34.5881L38.2611 29.1408C38.4344 29.1394 38.6062 29.1739 38.7657 29.2419C43.9191 31.4919 50.0989 35.8808 51.8181 42.2968C51.8181 42.3031 51.8181 42.3095 51.8181 42.3158C53.3596 48.4331 52.8092 54.1766 49.893 58.4848C49.7193 58.7416 49.5366 58.993 49.3465 59.238C50.5512 58.2912 51.5802 57.1956 52.4138 55.9639C55.33 51.6557 55.8804 45.9122 54.339 39.7949C54.339 39.7886 54.339 39.7822 54.339 39.7759C52.6198 33.3599 46.44 28.971 41.2866 26.721C41.1271 26.653 40.9553 26.6187 40.7819 26.6201L37.109 26.6105H36.9219C36.9186 26.6105 36.9152 26.6105 36.9119 26.6105H36.9119Z" fill="#353133"/>
<path d="M33.8789 21.5665C31.8059 21.5665 30.1025 23.2724 30.1025 25.3454C30.1025 27.4184 31.8059 29.1316 33.8789 29.1316H37.6651V32.9105C37.6645 33.0762 37.6965 33.2404 37.7594 33.3937C37.8223 33.547 37.9149 33.6864 38.0317 33.804C38.1486 33.9215 38.2874 34.0148 38.4404 34.0786C38.5933 34.1424 38.7574 34.1754 38.9231 34.1757C39.0895 34.1764 39.2543 34.1441 39.4081 34.0808C39.5619 34.0174 39.7017 33.9242 39.8193 33.8066C39.9369 33.689 40.0301 33.5493 40.0935 33.3955C40.1568 33.2416 40.1891 33.0768 40.1885 32.9105V29.1316H40.2894C42.3625 29.1316 44.0756 27.4184 44.0756 25.3454C44.0756 23.2724 42.3624 21.5665 40.2894 21.5665H33.8789Z" fill="#353133"/>
<path d="M21.2811 37.9523C16.7706 37.9523 13.084 41.6296 13.084 46.1401C13.084 50.6507 16.7706 54.3371 21.2811 54.3371C25.7917 54.3371 29.469 50.6507 29.469 46.1401C29.469 41.6296 25.7917 37.9523 21.2811 37.9523Z" fill="#FFCD40"/>
<path d="M16.3126 56.2819C14.402 56.2819 12.8235 57.8511 12.8235 59.7617C12.8235 61.6723 14.402 63.2508 16.3126 63.2508H25.2169C27.1276 63.2508 28.7061 61.6723 28.7061 59.7617C28.7061 57.8511 27.1276 56.2819 25.2169 56.2819H16.3126Z" fill="#FFCD40"/>
<path d="M21.2821 37.9521C18.3825 37.9521 15.8275 39.4767 14.3694 41.7604C15.6413 40.9489 17.1471 40.4729 18.7612 40.4729C23.2718 40.4729 26.9491 44.1502 26.9491 48.6608C26.9491 50.2751 26.4709 51.7807 25.6591 53.0527C27.9443 51.5949 29.47 49.0407 29.47 46.14C29.47 41.6295 25.7926 37.9521 21.2821 37.9521Z" fill="#F8A92D"/>
<path d="M16.3116 56.2825C14.5731 56.2491 12.9863 57.7122 12.8552 59.441C16.1962 59.4268 19.5373 59.3934 22.8782 59.3896C24.1478 59.4277 25.5616 60.0326 26.0196 61.3041C26.2342 61.8874 26.2294 62.5353 26.0676 63.1311C27.6576 62.7357 28.8401 61.1324 28.6965 59.4924C28.5925 57.7343 26.9768 56.2434 25.2158 56.2805C22.2477 56.2811 19.2797 56.2818 16.3116 56.2825Z" fill="#F8A92D"/>
<path d="M17.6989 51.8157C15.7882 51.8157 14.2097 53.3942 14.2097 55.3048C14.2097 57.2155 15.7882 58.7941 17.6989 58.7941H26.6125C28.5231 58.7941 30.1016 57.2155 30.1016 55.3048C30.1016 53.3942 28.5231 51.8157 26.6125 51.8157H17.6989Z" fill="#FFCD40"/>
<path d="M17.7 51.8168C16.0831 51.8168 14.7132 52.9502 14.3274 54.4557C14.6016 54.3852 14.8846 54.3377 15.1792 54.3377H24.0908C26.0015 54.3377 27.5816 55.9153 27.5816 57.826C27.5816 58.1199 27.5336 58.4018 27.4634 58.6753C28.9678 58.2884 30.1025 56.9213 30.1025 55.3052C30.1025 53.3946 28.5223 51.8168 26.6117 51.8168H17.7Z" fill="#F8A92D"/>
<path d="M28.2958 4.57734C27.3545 4.61545 26.4434 4.79943 25.6912 5.41444C25.1535 5.85414 24.8162 6.51833 24.6843 7.24101C25.0393 7.16241 25.4027 7.11334 25.7749 7.0981C27.6575 7.01902 29.9043 7.53355 32.3085 8.13946C34.7127 8.74552 37.2471 9.46587 39.4526 9.907C39.5615 9.93082 40.151 9.86896 40.8779 9.61886C41.6049 9.36781 42.4742 8.98874 43.3693 8.62431C44.2643 8.25987 45.1773 7.90775 46.1141 7.75769C47.051 7.60763 48.1948 7.67957 49.0092 8.49376C50.4773 9.96188 50.4839 12.1049 49.7822 13.9368C49.0805 15.7688 47.7658 17.5631 46.2742 19.2591C46.089 19.4696 45.8948 19.6708 45.7055 19.8771C46.7388 18.9115 47.7943 17.8761 48.795 16.7383C50.2867 15.0424 51.6014 13.2479 52.3031 11.4159C53.0047 9.58403 52.9982 7.44097 51.5301 5.97285C50.7157 5.15842 49.5719 5.08668 48.635 5.23679C47.6981 5.38685 46.7852 5.73873 45.8901 6.1034C44.9951 6.46784 44.1258 6.84709 43.3988 7.09795C42.6718 7.34901 42.0823 7.40801 41.9734 7.3861C39.7679 6.94497 37.2335 6.22461 34.8293 5.61856C32.4252 5.01245 30.1783 4.49788 28.2958 4.57719V4.57734Z" fill="#353133"/>
<path d="M28.3008 4.57294C27.3595 4.61105 26.4385 4.79488 25.6864 5.4099C24.9342 6.02496 24.5657 7.07482 24.6253 8.11791C24.7446 10.204 26.0341 12.7199 28.7291 16.6134C30.1423 18.6551 30.9808 20.1813 32.023 22.0787C30.8826 22.7353 30.0954 23.9521 30.0954 25.3479C30.0954 26.198 30.3952 26.9787 30.8783 27.6128C26.6931 29.7781 22.2897 33.2579 20.2975 38.0113C16.2449 38.499 13.0796 41.966 13.0796 46.1451C13.0796 48.6099 14.1834 50.8211 15.918 52.3242C14.9053 52.9385 14.2144 54.0425 14.2144 55.3004C14.2144 55.8268 14.343 56.3226 14.5566 56.7726C13.5258 57.3825 12.8186 58.4945 12.8186 59.7661C12.8186 61.6767 14.3963 63.2545 16.3069 63.2545C23.1669 63.2736 30.7325 63.2259 37.0007 63.2545C43.0896 63.2545 49.6356 60.3849 52.4164 55.9701C55.3326 51.6619 55.8854 45.906 54.344 39.7887C54.3414 39.784 54.3378 39.7744 54.334 39.7697C52.8297 34.1556 47.9076 30.1008 43.2486 27.6676C43.7563 27.0241 44.0708 26.222 44.0708 25.3461C44.0708 24.1978 43.5382 23.1732 42.7193 22.4756C44.414 21.1191 46.7309 19.0806 48.7876 16.7422C50.2793 15.0462 51.5939 13.2517 52.2956 11.4198C52.9973 9.58791 52.9932 7.43512 51.5251 5.967C50.7107 5.15257 49.5669 5.08315 48.63 5.23326C47.6931 5.38332 46.7802 5.73278 45.8851 6.0974C44.9901 6.46184 44.1183 6.85098 43.3913 7.10184C42.6644 7.35289 42.0773 7.40434 41.9684 7.38242C39.7629 6.94129 37.2261 6.22094 34.8219 5.61488C32.4177 5.00883 30.1832 4.49178 28.3006 4.57105L28.3008 4.57294ZM28.4041 7.09384C29.6939 7.03954 31.8609 7.46963 34.209 8.06121C36.5571 8.65316 39.1181 9.38659 41.4762 9.85826C42.4682 10.0564 43.3281 9.79122 44.2113 9.48681C45.0944 9.18193 45.9917 8.77685 46.8355 8.43309C47.6793 8.08914 48.4812 7.81467 49.0314 7.72654C50.6272 7.63984 50.2236 9.76489 49.9423 10.5183C49.6413 11.3041 49.1031 12.2035 48.4431 13.1277C42.3715 14.8461 36.2153 13.7354 28.7463 11.8772C27.6889 9.9893 27.174 8.63703 27.1363 7.97761C27.1363 7.27766 27.7132 7.09399 28.4041 7.09399V7.09384ZM30.6517 14.9345C31.9849 15.2442 33.2858 15.509 34.5734 15.7444L35.0953 21.5617H34.6202C33.213 19.053 31.9315 16.808 30.6518 14.9345H30.6517ZM37.141 16.1506C37.9336 16.2564 38.7227 16.3431 39.5043 16.4017L37.6395 21.5616L37.141 16.1506ZM45.8139 16.254C43.915 18.2231 41.8385 19.9753 40.5457 20.9856L42.1483 16.4953C43.3753 16.4906 44.5966 16.4237 45.8139 16.2542V16.254ZM33.8841 24.0825H40.2946C41.0146 24.0825 41.5501 24.6278 41.5501 25.3479C41.5501 26.0679 41.0146 26.6059 40.2946 26.6059H33.8841C33.164 26.6059 32.6187 26.0679 32.6187 25.3479C32.6187 24.6278 33.164 24.0825 33.8841 24.0825ZM40.4321 29.1268C45.0977 31.2025 50.5178 35.2933 51.8967 40.414C53.3091 46.0278 52.7355 50.9938 50.3236 54.5569C47.9103 58.1222 43.6132 60.4638 36.9709 60.64C32.7661 60.6209 30.3832 60.6352 28.5836 60.64C28.6579 60.3589 28.7091 60.0689 28.7091 59.7661C28.7091 59.2379 28.5794 58.7401 28.3644 58.289C29.3922 57.6783 30.0951 56.5695 30.0951 55.3003C30.0951 53.5662 28.7924 52.1189 27.1237 51.8638C28.5725 50.3859 29.4722 48.3686 29.4722 46.1451C29.4722 42.2312 26.6962 38.9421 23.015 38.1392C25.1269 34.094 29.6341 30.8848 33.5859 29.1268H37.6604V32.903C37.6604 34.584 40.1813 34.584 40.1813 32.903V29.1268H40.4321ZM35.8658 38.7375V39.2124H34.6915C34.6515 39.2105 34.6111 39.2105 34.5709 39.2124C33.9262 39.2772 33.4354 39.82 33.436 40.4679V45.2241C33.4386 45.9163 33.9993 46.4768 34.6916 46.4796H38.2931V49.2885H34.6915C32.9728 49.2504 32.9728 51.848 34.6915 51.8094H35.8658V52.2844C35.8658 53.9653 38.3867 53.9653 38.3867 52.2844V51.8094H39.5585C40.2507 51.8066 40.8112 51.2462 40.814 50.5539V45.2241C40.8165 44.528 40.2546 43.9615 39.5585 43.9587H35.9569V41.7333H39.5585C41.2772 41.7714 41.2772 39.1738 39.5585 39.2124H38.3867V38.7375C38.4 38.0228 37.8162 37.4415 37.1107 37.4553C36.4052 37.4696 35.8527 38.0411 35.8658 38.7375H35.8658ZM21.2748 40.4681C24.423 40.4681 26.9517 42.9969 26.9517 46.1451C26.9517 49.2932 24.423 51.8095 21.2748 51.8095C18.1266 51.8095 15.6004 49.2932 15.6004 46.1451C15.6004 42.9969 18.1266 40.4681 21.2748 40.4681ZM17.7028 54.3329H26.607C27.1647 54.3329 27.5745 54.7431 27.5745 55.3004C27.5745 55.8581 27.1647 56.2678 26.607 56.2678H17.7028C17.1451 56.2678 16.7353 55.8577 16.7353 55.3004C16.7353 54.7427 17.1451 54.3329 17.7028 54.3329ZM16.3069 58.7986H25.2211C25.7787 58.7986 26.1885 59.2088 26.1885 59.7661C26.1885 60.3237 25.7787 60.7335 25.2211 60.7335H16.3069C15.7492 60.7335 15.3394 60.3234 15.3394 59.7661C15.3394 59.2084 15.7492 58.7986 16.3069 58.7986H16.3069Z" fill="#F14902"/>
</svg>
