<svg width="34" height="40" viewBox="0 0 34 40" fill="none" xmlns="http://www.w3.org/2000/svg">
<path fill-rule="evenodd" clip-rule="evenodd" d="M14.6002 0.800049C14.1546 0.800287 13.7179 0.924568 13.3389 1.15897C12.96 1.39338 12.6538 1.72865 12.4546 2.12725L10.717 5.60005H2.6002C1.96368 5.60005 1.35323 5.85291 0.903139 6.30299C0.453052 6.75308 0.200195 7.36353 0.200195 8.00005C0.200195 8.63657 0.453052 9.24702 0.903139 9.6971C1.35323 10.1472 1.96368 10.4 2.6002 10.4V34.4C2.6002 35.6731 3.10591 36.894 4.00608 37.7942C4.90626 38.6943 6.12716 39.2 7.4002 39.2H26.6002C27.8732 39.2 29.0941 38.6943 29.9943 37.7942C30.8945 36.894 31.4002 35.6731 31.4002 34.4V10.4C32.0367 10.4 32.6472 10.1472 33.0973 9.6971C33.5473 9.24702 33.8002 8.63657 33.8002 8.00005C33.8002 7.36353 33.5473 6.75308 33.0973 6.30299C32.6472 5.85291 32.0367 5.60005 31.4002 5.60005H23.2834L21.5458 2.12725C21.3466 1.72865 21.0404 1.39338 20.6615 1.15897C20.2825 0.924568 19.8458 0.800287 19.4002 0.800049H14.6002ZM9.8002 15.2C9.8002 14.5635 10.0531 13.9531 10.5031 13.503C10.9532 13.0529 11.5637 12.8 12.2002 12.8C12.8367 12.8 13.4472 13.0529 13.8973 13.503C14.3473 13.9531 14.6002 14.5635 14.6002 15.2V29.6C14.6002 30.2366 14.3473 30.847 13.8973 31.2971C13.4472 31.7472 12.8367 32 12.2002 32C11.5637 32 10.9532 31.7472 10.5031 31.2971C10.0531 30.847 9.8002 30.2366 9.8002 29.6V15.2ZM21.8002 12.8C21.1637 12.8 20.5532 13.0529 20.1031 13.503C19.6531 13.9531 19.4002 14.5635 19.4002 15.2V29.6C19.4002 30.2366 19.6531 30.847 20.1031 31.2971C20.5532 31.7472 21.1637 32 21.8002 32C22.4367 32 23.0472 31.7472 23.4973 31.2971C23.9473 30.847 24.2002 30.2366 24.2002 29.6V15.2C24.2002 14.5635 23.9473 13.9531 23.4973 13.503C23.0472 13.0529 22.4367 12.8 21.8002 12.8Z" fill="#F43F5E"/>
</svg>
