<svg width="16" height="18" viewBox="0 0 16 18" fill="none" xmlns="http://www.w3.org/2000/svg">
<path fill-rule="evenodd" clip-rule="evenodd" d="M6.95643 0.6521C6.76269 0.652203 6.57281 0.706239 6.40805 0.808154C6.24329 0.91007 6.11016 1.05584 6.02356 1.22914L5.26808 2.73906H1.73904C1.46229 2.73906 1.19687 2.84899 1.00118 3.04468C0.805494 3.24037 0.695557 3.50579 0.695557 3.78253C0.695557 4.05928 0.805494 4.32469 1.00118 4.52038C1.19687 4.71607 1.46229 4.82601 1.73904 4.82601V15.2608C1.73904 15.8143 1.95891 16.3451 2.35029 16.7365C2.74167 17.1279 3.2725 17.3478 3.82599 17.3478H12.1738C12.7273 17.3478 13.2581 17.1279 13.6495 16.7365C14.0409 16.3451 14.2608 15.8143 14.2608 15.2608V4.82601C14.5375 4.82601 14.8029 4.71607 14.9986 4.52038C15.1943 4.32469 15.3043 4.05928 15.3043 3.78253C15.3043 3.50579 15.1943 3.24037 14.9986 3.04468C14.8029 2.84899 14.5375 2.73906 14.2608 2.73906H10.7317L9.97625 1.22914C9.88965 1.05584 9.75652 0.91007 9.59176 0.808154C9.427 0.706239 9.23712 0.652203 9.04338 0.6521H6.95643ZM4.86947 6.91297C4.86947 6.63622 4.97941 6.37081 5.1751 6.17512C5.37079 5.97943 5.6362 5.86949 5.91295 5.86949C6.1897 5.86949 6.45511 5.97943 6.6508 6.17512C6.84649 6.37081 6.95643 6.63622 6.95643 6.91297V13.1738C6.95643 13.4506 6.84649 13.716 6.6508 13.9117C6.45511 14.1074 6.1897 14.2173 5.91295 14.2173C5.6362 14.2173 5.37079 14.1074 5.1751 13.9117C4.97941 13.716 4.86947 13.4506 4.86947 13.1738V6.91297ZM10.0869 5.86949C9.81011 5.86949 9.5447 5.97943 9.34901 6.17512C9.15332 6.37081 9.04338 6.63622 9.04338 6.91297V13.1738C9.04338 13.4506 9.15332 13.716 9.34901 13.9117C9.5447 14.1074 9.81011 14.2173 10.0869 14.2173C10.3636 14.2173 10.629 14.1074 10.8247 13.9117C11.0204 13.716 11.1303 13.4506 11.1303 13.1738V6.91297C11.1303 6.63622 11.0204 6.37081 10.8247 6.17512C10.629 5.97943 10.3636 5.86949 10.0869 5.86949Z" fill="#F43F5E"/>
</svg>
