<svg width="235" height="103" viewBox="0 0 235 103" fill="none" xmlns="http://www.w3.org/2000/svg">
<path fill-rule="evenodd" clip-rule="evenodd" d="M182.273 102.231C154.596 101.596 132.326 78.9903 132.268 51.1479C132.212 24.5074 152.511 2.57588 178.506 0.0732711C177.428 0.0696596 176.401 0.0726973 175.446 0.0755216C175.124 0.0764743 174.81 0.0774027 174.506 0.0780435L154.501 0.120093L122.111 0.188177L111.221 0.211069L84.1362 0.268002L47.3996 0.345224L18.702 0.405547L4.86738 0.434628L2.38289e-06 0.444859L28.3176 27.7686L97.8795 27.6062C101.642 27.5983 104.709 30.18 104.716 33.3609C104.722 36.5418 101.666 39.1364 97.9038 39.1443L37.0587 39.2883L60.8747 62.7491L115.504 62.6181C119.266 62.6102 122.333 65.192 122.34 68.3728C122.346 71.5537 119.29 74.1483 115.528 74.1562L72.032 74.2638L99.214 102.459L182.04 102.459L182.273 102.231Z" fill="#1B191A"/>
<ellipse rx="27.982" ry="27.8384" transform="matrix(0.999998 -0.0020896 0.00211495 0.999998 183.222 50.7445)" fill="#1B191A"/>
</svg>
