<svg width="218" height="142" viewBox="0 0 218 142" fill="none" xmlns="http://www.w3.org/2000/svg">
<path fill-rule="evenodd" clip-rule="evenodd" d="M27.8575 0C21.4415 6.41605 12.4756 9.60263 3.4514 8.6637L0.810059 8.38899V36.8885C0.810059 44.7764 4.3978 52.2341 10.5576 57.1622L27.8576 71.0028L45.1575 57.1892C51.317 52.2612 54.905 44.7914 54.905 36.9036V8.40252H54.7209C44.9568 9.79264 35.0902 6.70753 27.8577 0.00311303L27.8575 0ZM42.9403 23.6666C44.3893 23.6167 45.71 24.4967 46.2217 25.8536C46.7333 27.212 46.3213 28.744 45.1983 29.6632L24.9521 46.5424V46.5409C23.6088 47.6623 21.6331 47.5733 20.3954 46.3371L11.9701 37.8848C11.2758 37.2644 10.8683 36.386 10.8426 35.4562C10.8185 34.5265 11.1762 33.6269 11.8358 32.9703C12.4953 32.3123 13.3949 31.956 14.3247 31.9847C15.2544 32.0119 16.1329 32.4224 16.7502 33.1182L22.9974 39.379L40.8665 24.4816V24.4801C41.4461 23.985 42.1781 23.7013 42.9403 23.6756V23.6666Z" fill="#F14902"/>
<path d="M190.142 87.9043C197.316 87.9043 204.196 90.7539 209.267 95.8253C214.34 100.898 217.19 107.778 217.19 114.952C217.19 122.124 214.34 129.004 209.267 134.077C204.196 139.15 197.316 141.999 190.142 141.999C182.969 141.999 176.089 139.15 171.018 134.077C165.945 129.004 163.095 122.124 163.095 114.952C163.095 107.778 165.945 100.898 171.018 95.8253C176.089 90.7539 182.969 87.9043 190.142 87.9043ZM190.142 94.6662C184.763 94.6662 179.603 96.8049 175.799 100.609C171.996 104.412 169.858 109.571 169.857 114.952C169.858 120.331 171.996 125.49 175.799 129.295C179.603 133.099 184.763 135.236 190.142 135.237C195.525 135.239 200.687 133.103 204.493 129.3C208.302 125.495 210.44 120.334 210.442 114.952C210.44 109.569 208.302 104.408 204.493 100.604C200.687 96.7988 195.525 94.6631 190.142 94.6662Z" fill="#F14902"/>
<path fill-rule="evenodd" clip-rule="evenodd" d="M93.4399 49.0178V39.4623C93.4399 35.1787 88.4438 32.8241 85.1247 35.5423L63.9983 52.8454C54.4637 60.6532 54.0398 75.0583 63.0973 83.4125L113.784 130.158H147.693V114.944C147.693 91.6037 166.67 72.6805 190.081 72.6805H196.862L212.122 45.633L177.846 57.0254C176.995 57.3091 176.291 57.9174 175.89 58.7204L175.414 59.6682C173.974 62.539 171.262 64.56 168.098 65.1156L148.08 68.6384C145.645 69.0656 143.137 68.5614 141.025 67.3072L130.532 60.9135C120.244 54.6451 107.318 54.6451 97.0322 60.9135L83.2639 69.3025L93.4399 49.0178Z" fill="#F14902"/>
<path d="M54.2326 91.9305L59.4759 96.7771L59.4744 96.7786C56.0799 98.4494 53.2183 101.037 51.2168 104.247C49.2139 107.459 48.1498 111.166 48.1438 114.951C48.1453 120.33 50.2825 125.489 54.0861 129.293C57.8897 133.098 63.05 135.235 68.4294 135.237C72.4803 135.234 76.4366 134.017 79.7917 131.745C83.1454 129.475 85.7429 126.251 87.2494 122.492L92.4792 127.338C87.2401 137.499 76.1812 143.277 64.8506 141.76C53.52 140.245 44.3583 131.756 41.9766 120.576C39.5948 109.397 44.5047 97.933 54.2326 91.9304L54.2326 91.9305Z" fill="#F14902"/>
</svg>
