<svg width="23" height="16" viewBox="0 0 23 16" fill="none" xmlns="http://www.w3.org/2000/svg">
<g opacity="0.01">
<rect x="0.615723" y="0.799805" width="21.7744" height="14.4" fill="white"/>
</g>
<rect x="8.63135" y="3.30859" width="5.74312" height="9.3825" fill="#F26122"/>
<path d="M9.25016 8.00044C9.24068 6.17431 10.0701 4.44491 11.5002 3.30919C9.05343 1.38505 5.53876 1.66446 3.42677 3.95101C1.31478 6.23757 1.31478 9.76332 3.42677 12.0499C5.53876 14.3364 9.05343 14.6158 11.5002 12.6917C10.0701 11.556 9.24068 9.82658 9.25016 8.00044Z" fill="#EA1D25"/>
<path fill-rule="evenodd" clip-rule="evenodd" d="M20.5788 11.5047V11.696H20.5451V11.5047H20.4663V11.4653H20.6632V11.5047H20.5788ZM20.9613 11.4653V11.696H20.922V11.5216L20.8601 11.6735H20.8151L20.7476 11.5216V11.696H20.7082V11.4653H20.7645L20.8376 11.6285L20.9051 11.4653H20.9613Z" fill="#F69E1E"/>
<path d="M21.1525 7.99949C21.151 10.2829 19.8469 12.3653 17.7932 13.3634C15.7395 14.3615 13.2963 14.1004 11.5 12.6907C14.0875 10.6533 14.5356 6.90503 12.5013 4.31511C12.2096 3.94008 11.8734 3.60196 11.5 3.30824C13.2963 1.89861 15.7395 1.63747 17.7932 2.63559C19.8469 3.6337 21.151 5.71611 21.1525 7.99949Z" fill="#F69E1E"/>
</svg>
