<svg width="24" height="25" viewBox="0 0 24 25" fill="none" xmlns="http://www.w3.org/2000/svg">
<path d="M12 8.5C10.343 8.5 9 9.395 9 10.5C9 11.605 10.343 12.5 12 12.5C13.657 12.5 15 13.395 15 14.5C15 15.605 13.657 16.5 12 16.5M12 8.5V16.5M12 8.5C13.11 8.5 14.08 8.902 14.599 9.5M12 8.5V7.5M12 16.5V17.5M12 16.5C10.89 16.5 9.92 16.098 9.401 15.5M21 12.5C21 13.6819 20.7672 14.8522 20.3149 15.9442C19.8626 17.0361 19.1997 18.0282 18.364 18.864C17.5282 19.6997 16.5361 20.3626 15.4442 20.8149C14.3522 21.2672 13.1819 21.5 12 21.5C10.8181 21.5 9.64778 21.2672 8.55585 20.8149C7.46392 20.3626 6.47177 19.6997 5.63604 18.864C4.80031 18.0282 4.13738 17.0361 3.68508 15.9442C3.23279 14.8522 3 13.6819 3 12.5C3 10.1131 3.94821 7.82387 5.63604 6.13604C7.32387 4.44821 9.61305 3.5 12 3.5C14.3869 3.5 16.6761 4.44821 18.364 6.13604C20.0518 7.82387 21 10.1131 21 12.5Z" stroke="#DC2626" stroke-width="2" stroke-linecap="round" stroke-linejoin="round"/>
</svg>
