<svg width="170" height="120" viewBox="0 0 170 120" fill="none" xmlns="http://www.w3.org/2000/svg">
<path d="M146.769 72.8884C152.922 72.8884 158.822 75.3309 163.173 79.6791C167.524 84.0286 169.968 89.9264 169.968 96.0755C169.968 102.226 167.524 108.124 163.173 112.472C158.822 116.821 152.922 119.264 146.769 119.264C140.616 119.264 134.715 116.821 130.365 112.472C126.014 108.124 123.569 102.226 123.569 96.0755C123.569 89.9267 126.014 84.0286 130.365 79.6791C134.716 75.3309 140.616 72.8884 146.769 72.8884ZM146.769 78.6855C142.154 78.6855 137.728 80.5187 134.466 83.7802C131.203 87.0403 129.37 91.4634 129.369 96.0755C129.37 100.688 131.203 105.111 134.466 108.372C137.729 111.634 142.154 113.466 146.769 113.467C151.385 113.469 155.813 111.638 159.078 108.376C162.344 105.115 164.178 100.69 164.179 96.0755C164.178 91.4621 162.344 87.0378 159.078 83.7749C155.813 80.5135 151.385 78.6829 146.769 78.6855Z" fill="#F14902"/>
<path fill-rule="evenodd" clip-rule="evenodd" d="M79.743 50.9673V44.4601C79.743 41.5441 76.3394 39.9401 74.0781 41.7912L59.6843 53.5729C53.1887 58.8901 52.8989 68.7002 59.0698 74.3887L93.6027 106.221H116.704V95.8616C116.704 79.9685 129.634 67.083 145.582 67.083H150.202L160.598 48.6647L137.247 56.4218C136.667 56.6184 136.187 57.0285 135.914 57.5745L135.591 58.2187C134.61 60.1722 132.762 61.5501 130.608 61.9277L116.969 64.3262C115.311 64.616 113.602 64.2602 112.163 63.4193L105.015 59.0659C98.0075 54.7978 89.2013 54.7978 82.192 59.0659L72.8114 64.7788L79.743 50.9673Z" fill="#F14902"/>
<path d="M53.8609 76.3396L58.3577 80.495V80.4963C55.4456 81.9284 52.9915 84.146 51.2746 86.8988C49.5566 89.6518 48.6445 92.8304 48.6394 96.075C48.6394 100.687 50.4739 105.11 53.7367 108.372C56.9994 111.633 61.4239 113.465 66.0386 113.466C69.5135 113.464 72.9068 112.421 75.7842 110.474C78.6614 108.527 80.8891 105.764 82.1801 102.54L86.6653 106.695C82.1724 115.406 72.6856 120.359 62.9672 119.059C53.2488 117.758 45.3898 110.483 43.347 100.898C41.3042 91.3131 45.5153 81.4862 53.8596 76.3398L53.8609 76.3396Z" fill="#F14902"/>
<path d="M28.2826 24.8503C28.8018 24.5052 29.4417 24.1937 30.182 23.9558V29.6441C29.5111 29.4338 28.8721 29.1329 28.2826 28.7497C27.0665 27.939 26.832 27.1819 26.832 26.8C26.832 26.4181 27.0665 25.661 28.2826 24.8503ZM36.882 43.0441V37.3558C37.619 37.5937 38.2622 37.9052 38.7815 38.2503C40.0009 39.0643 40.232 39.8181 40.232 40.2C40.232 40.5819 39.9975 41.339 38.7815 42.1497C38.192 42.5329 37.5529 42.8338 36.882 43.0441Z" fill="#F14902"/>
<path fill-rule="evenodd" clip-rule="evenodd" d="M33.5324 60.2999C40.6402 60.2999 47.4569 57.4764 52.4829 52.4504C57.5089 47.4244 60.3324 40.6078 60.3324 33.5C60.3324 26.3921 57.5089 19.5755 52.4829 14.5495C47.4569 9.52351 40.6402 6.69995 33.5324 6.69995C26.4246 6.69995 19.6079 9.52351 14.582 14.5495C9.55599 19.5755 6.73242 26.3921 6.73242 33.5C6.73242 40.6078 9.55599 47.4244 14.582 52.4504C19.6079 57.4764 26.4246 60.2999 33.5324 60.2999ZM36.8824 16.75C36.8824 15.8615 36.5295 15.0094 35.9012 14.3811C35.273 13.7529 34.4209 13.4 33.5324 13.4C32.6439 13.4 31.7919 13.7529 31.1636 14.3811C30.5354 15.0094 30.1824 15.8615 30.1824 16.75V17.0582C28.1814 17.4144 26.2722 18.1685 24.5678 19.2759C22.1491 20.8839 20.1324 23.4801 20.1324 26.7999C20.1324 30.1165 22.1491 32.7127 24.5678 34.3241C26.1758 35.3961 28.0987 36.1498 30.1824 36.5417V43.0441C28.8726 42.6186 27.9044 41.9822 27.3584 41.3557C27.075 41.0079 26.7246 40.7206 26.3281 40.5108C25.9315 40.301 25.4969 40.173 25.0499 40.1344C24.603 40.0958 24.1528 40.1473 23.7262 40.2859C23.2995 40.4246 22.905 40.6475 22.5662 40.9415C22.2273 41.2355 21.9509 41.5945 21.7535 41.9974C21.556 42.4002 21.4414 42.8386 21.4166 43.2865C21.3918 43.7344 21.4571 44.1828 21.6089 44.605C21.7606 45.0271 21.9956 45.4146 22.2999 45.7442C24.1826 47.9184 27.0334 49.3488 30.1824 49.9417V50.25C30.1824 51.1384 30.5354 51.9905 31.1636 52.6188C31.7919 53.247 32.6439 53.5999 33.5324 53.5999C34.4209 53.5999 35.273 53.247 35.9012 52.6188C36.5295 51.9905 36.8824 51.1384 36.8824 50.25V49.9417C38.8835 49.5855 40.7927 48.8314 42.497 47.7241C44.9157 46.1161 46.9324 43.5198 46.9324 40.2C46.9324 36.8834 44.9157 34.2872 42.497 32.6758C40.7927 31.5685 38.8835 30.8144 36.8824 30.4582V23.9558C38.1923 24.3813 39.1604 25.0178 39.7065 25.6442C39.9925 25.9836 40.3432 26.2628 40.738 26.4655C41.1329 26.6682 41.5641 26.7904 42.0066 26.8251C42.4491 26.8597 42.8941 26.806 43.3157 26.6672C43.7373 26.5284 44.1271 26.3072 44.4625 26.0164C44.7979 25.7257 45.0721 25.3712 45.2693 24.9735C45.4665 24.5759 45.5827 24.143 45.6111 23.7C45.6396 23.2571 45.5797 22.8129 45.435 22.3933C45.2904 21.9737 45.0637 21.587 44.7683 21.2557C42.8823 19.0816 40.0348 17.6511 36.8824 17.0582V16.75Z" fill="#F14902"/>
</svg>
