<svg width="35" height="25" viewBox="0 0 35 25" fill="none" xmlns="http://www.w3.org/2000/svg">
<g clip-path="url(#clip0_1112_5059)">
<path d="M25.1662 16.0712C24.6937 16.0712 24.2358 16.1433 23.8072 16.2741L23.3444 15.3319C23.773 15.2282 24.2164 15.1696 24.6791 15.1696H26.6276C26.8955 15.1696 27.1147 14.9667 27.1147 14.7188C27.1147 11.3556 24.153 8.40723 20.7822 8.40723C20.6214 8.40723 20.4753 8.47934 20.3827 8.60106C20.2902 8.72278 20.2707 8.87604 20.3243 9.01583L20.5533 9.57936L19.4377 9.3224C19.1795 9.25927 18.9117 9.40804 18.8483 9.65148C18.785 9.89043 18.9408 10.1384 19.2039 10.197L20.9721 10.6072L21.3959 11.6621C19.4621 11.013 16.5978 10.4359 14.5908 11.2158C13.714 11.5539 13.071 12.113 12.6764 12.8839L8.6041 12.5097V12.0138C8.6041 11.7974 8.4385 11.6125 8.21439 11.5719L3.34318 10.6703C3.15806 10.6388 2.97299 10.7018 2.86094 10.8371C2.74403 10.9768 2.72457 11.1617 2.81225 11.3149L3.53321 12.6539L1.14147 13.3887C0.966111 13.4428 0.839443 13.5826 0.815126 13.7539L0.328033 16.9096C0.298806 17.1125 0.420565 17.3154 0.630061 17.392C0.834648 17.4687 1.07331 17.4055 1.20489 17.2342C2.1986 15.9629 3.91327 15.1695 5.68154 15.1695C8.1415 15.1695 10.2117 16.7112 10.8402 18.8031L9.88054 18.9654C9.33494 17.2928 7.65926 16.0711 5.68154 16.0711C3.26543 16.0711 1.29748 17.8924 1.29748 20.1285C1.29748 22.3646 3.26543 24.1859 5.68154 24.1859C8.09766 24.1859 10.0656 22.3646 10.0656 20.1285C10.0656 20.0338 10.0558 19.9436 10.051 19.8535L11.0155 19.6912C11.0301 19.8355 11.0399 19.9797 11.0399 20.1285C11.0399 20.3764 11.2591 20.5793 11.5269 20.5793H18.8337C19.1016 20.5793 19.3208 20.3764 19.3208 20.1285C19.3208 18.1403 20.748 16.4318 22.5747 15.6384L22.9206 16.6481C21.6444 17.3604 20.7822 18.6498 20.7822 20.1284C20.7822 22.3645 22.7501 24.1858 25.1662 24.1858C27.5823 24.1858 29.5503 22.3645 29.5503 20.1284C29.5503 17.8924 27.5823 16.0712 25.1662 16.0712ZM5.68143 23.2843C3.80116 23.2843 2.27161 21.8688 2.27161 20.1286C2.27161 18.3884 3.80116 16.9729 5.68143 16.9729C7.18175 16.9729 8.45802 17.879 8.91104 19.1278L5.59375 19.6868C5.33071 19.7274 5.15535 19.9664 5.20404 20.2098C5.24303 20.4262 5.44762 20.5795 5.68143 20.5795C5.71066 20.5795 5.73988 20.575 5.76911 20.5704L9.0864 20.0159C9.0864 20.052 9.09125 20.088 9.09125 20.1286C9.09131 21.8688 7.5617 23.2843 5.68143 23.2843ZM18.3661 19.6778H11.9945C11.7461 16.6573 9.00848 14.2679 5.68143 14.2679C4.15188 14.2679 2.65641 14.7728 1.50681 15.6384L1.73577 14.1552L4.37593 13.3437C4.50745 13.3031 4.6146 13.2085 4.6682 13.0867C4.72665 12.965 4.71689 12.8298 4.65359 12.7125L4.12751 11.7342L7.62991 12.3834V12.9154C7.62991 13.1453 7.81989 13.3391 8.06832 13.3662L12.9395 13.817C13.1587 13.835 13.3682 13.7133 13.4461 13.5194C13.7238 12.8161 14.2207 12.3338 14.9659 12.0453C17.0703 11.2292 20.5142 12.2301 22.0438 12.8748C22.2191 12.9514 22.4335 12.9199 22.5747 12.7936C22.7208 12.6674 22.7695 12.4781 22.7014 12.3068L21.5079 9.36287C22.9303 9.57926 24.2114 10.4088 25.0639 11.5629H24.6791C24.4112 11.5629 24.192 11.7657 24.192 12.0137C24.192 12.2616 24.4112 12.4645 24.6791 12.4645H25.6143C25.8871 13.028 26.0625 13.6366 26.1209 14.2678H24.6791C21.3521 14.2679 18.6145 16.6573 18.3661 19.6778ZM25.1662 23.2843C23.286 23.2843 21.7564 21.8688 21.7564 20.1286C21.7564 19.0151 22.3848 18.0368 23.3298 17.4733L24.723 20.3135C24.8058 20.4802 24.9812 20.5795 25.1662 20.5795C25.2344 20.5795 25.3026 20.5659 25.366 20.5389C25.6144 20.4352 25.7215 20.1692 25.6095 19.9438L24.2164 17.0991C24.5184 17.018 24.835 16.9729 25.1662 16.9729C27.0465 16.9729 28.576 18.3885 28.576 20.1287C28.576 21.8688 27.0466 23.2843 25.1662 23.2843Z" fill="#C94403"/>
<path d="M23.3896 5.94591L25.4886 8.94498L27.5534 2.42367L28.3219 6.86697L32.9154 2.0728L30.1515 8.19623L34.8323 9.04911L27.9935 11.2211L29.1713 13.3815M29.8587 11.7269L31.1758 12.3672M24.8633 5.72202L24.9522 3.66896" stroke="#C94403" stroke-linejoin="round"/>
</g>
<defs>
<clipPath id="clip0_1112_5059">
<rect width="35" height="24.4186" fill="white"/>
</clipPath>
</defs>
</svg>
