<svg width="158" height="142" viewBox="0 0 158 142" fill="none" xmlns="http://www.w3.org/2000/svg">
<path d="M20.2995 136.19H0V86.9155H20.2995V136.19Z" fill="#F14902"/>
<path fill-rule="evenodd" clip-rule="evenodd" d="M44.9764 90.8233C50.5251 90.1273 56.1473 91.2567 61.0042 94.0394L79.9776 104.91H102.553C105.773 104.91 108.347 107.454 108.386 110.697V113.063C108.444 116.247 105.916 118.494 102.767 118.783L76.8402 121.152L99.876 122.05C99.876 122.05 128.829 112.728 142.844 107.706C145.633 106.588 148.751 107.772 150.093 110.48V110.546C151.53 113.503 150.296 116.988 147.295 118.325L104.774 137.283C93.8791 142.139 81.6937 143.281 70.0883 140.544L26.5139 130.262V93.162L44.9764 90.8233Z" fill="#F14902"/>
<path d="M134.544 31.8884C140.697 31.8884 146.598 34.3309 150.948 38.6791C155.299 43.0286 157.743 48.9264 157.743 55.0755C157.743 61.2257 155.299 67.1238 150.948 71.472C146.597 75.8214 140.697 78.264 134.544 78.264C128.391 78.264 122.49 75.8214 118.14 71.472C113.789 67.1238 111.344 61.2257 111.344 55.0755C111.344 48.9267 113.789 43.0286 118.14 38.6791C122.491 34.3309 128.391 31.8884 134.544 31.8884ZM134.544 37.6855C129.929 37.6855 125.504 39.5187 122.241 42.7802C118.978 46.0403 117.145 50.4634 117.144 55.0755C117.145 59.6876 118.978 64.1107 122.241 67.3722C125.504 70.6336 129.93 72.4655 134.544 72.4668C139.16 72.4694 143.588 70.6376 146.854 67.3762C150.119 64.1148 151.953 59.6903 151.955 55.0755C151.953 50.4621 150.119 46.0378 146.854 42.7749C143.588 39.5135 139.16 37.6829 134.544 37.6855Z" fill="#F14902"/>
<path fill-rule="evenodd" clip-rule="evenodd" d="M67.5182 9.9673V3.46013C67.5182 0.54412 64.1146 -1.05992 61.8532 0.791219L47.4595 12.5729C40.9639 17.8901 40.6741 27.7002 46.8449 33.3887L81.3779 65.2214H104.48V54.8616C104.48 38.9685 117.409 26.083 133.357 26.083H137.977L148.373 7.66468L125.022 15.4218C124.443 15.6184 123.963 16.0285 123.69 16.5745L123.366 17.2187C122.386 19.1722 120.537 20.5501 118.383 20.9277L104.744 23.3262C103.086 23.616 101.377 23.2602 99.9383 22.4193L92.7906 18.0659C85.7827 13.7978 76.9764 13.7978 69.9671 18.0659L60.5866 23.7788L67.5182 9.9673Z" fill="#F14902"/>
<path d="M41.636 35.3396L46.1329 39.495V39.4963C43.2208 40.9284 40.7667 43.146 39.0498 45.8988C37.3317 48.6518 36.4197 51.8304 36.4145 55.075C36.4145 59.6871 38.249 64.1102 41.5118 67.3717C44.7746 70.6331 49.199 72.465 53.8138 72.4664C57.2886 72.4638 60.682 71.4211 63.5593 69.474C66.4365 67.527 68.6642 64.7635 69.9552 61.5397L74.4405 65.6952C69.9476 74.4057 60.4607 79.3593 50.7424 78.059C41.024 76.7576 33.1649 69.4829 31.1221 59.898C29.0794 50.3131 33.2904 40.4862 41.6347 35.3398L41.636 35.3396Z" fill="#F14902"/>
</svg>
