<svg width="18" height="18" viewBox="0 0 18 18" fill="none" xmlns="http://www.w3.org/2000/svg">
<path d="M8.42895 10.5547C7.98749 10.3825 7.60393 10.089 7.32318 9.70827C7.04244 9.32756 6.87576 8.87515 6.84252 8.40396C6.81325 7.7319 7.06616 7.07803 7.54083 6.59945C8.01533 6.12104 8.66848 5.8612 9.34334 5.88239H16.878C16.2383 4.08555 15.2014 2.45979 13.4963 1.35997C9.67674 -1.10359 3.24967 -0.276302 0.893095 4.30163C-0.670651 7.33911 0.181246 10.63 0.735395 12.1025C0.915915 12.5763 1.29269 12.9495 1.76924 13.1267C5.92801 14.6915 10.0864 16.2563 14.2451 17.821C15.0865 18.1387 16.0305 18.0292 16.7762 17.5273C17.5219 17.0255 17.9762 16.1938 17.9945 15.2973C17.9998 15.0043 18.0008 14.7037 17.9995 14.4002L8.42895 10.5547ZM4.88844 9.08747C4.56124 9.08747 4.24726 8.95794 4.01592 8.72744C3.78456 8.49693 3.65456 8.18427 3.65456 7.85812C3.65456 7.53212 3.78456 7.21946 4.01592 6.98896C4.24727 6.7583 4.56124 6.62878 4.88844 6.62878C5.21564 6.62878 5.52946 6.7583 5.76097 6.98896C5.99232 7.21947 6.12232 7.53212 6.12232 7.85812C6.12185 8.18412 5.99185 8.49662 5.7605 8.727C5.52914 8.9575 5.21549 9.08718 4.88841 9.08749L4.88844 9.08747ZM5.96464 2.19505V2.19521C4.46209 2.67443 3.20568 3.71732 2.4616 5.10347C1.87094 6.29927 1.64052 7.64026 1.79854 8.96386C1.81664 9.15658 1.67468 9.32765 1.4811 9.346C1.28751 9.36434 1.11565 9.22306 1.09692 9.03035C0.925372 7.57315 1.18159 6.09776 1.83443 4.7825C2.66022 3.23454 4.05906 2.06837 5.73409 1.5313C5.91744 1.46984 6.11622 1.56706 6.1795 1.74927C6.24292 1.93147 6.14692 2.1303 5.96467 2.19504L5.96464 2.19505ZM6.9478 1.21016C7.38124 1.12815 7.82017 1.07813 8.26102 1.06073C8.45382 1.05555 8.61498 1.20593 8.62253 1.39801C8.62993 1.5901 8.4812 1.75255 8.28856 1.76243C7.88268 1.77874 7.47853 1.82484 7.07937 1.90042C6.88862 1.93538 6.70527 1.81025 6.66905 1.62052C6.63286 1.43062 6.7575 1.24732 6.94794 1.21014L6.9478 1.21016Z" fill="#F14902"/>
</svg>
