<svg width="18" height="19" viewBox="0 0 18 19" fill="none" xmlns="http://www.w3.org/2000/svg">
<path d="M17.6471 9.06074C17.1153 5.33908 15.7626 2.82149 13.511 1.36398C11.4708 0.0430406 8.61802 -0.353559 6.06302 0.328535C0.724778 1.755 -1.20086 6.97664 0.735242 12.1386C0.943086 12.6875 1.37754 13.1201 1.92737 13.3255L13.9273 17.8573C14.8399 18.2041 15.8642 18.0851 16.673 17.5385C17.482 16.9919 17.9743 16.0859 17.9927 15.1098C18.0313 13.0876 17.9158 11.0655 17.6471 9.0608L17.6471 9.06074ZM17.3064 13.3647L8.70703 9.89626C8.4017 9.77864 8.13604 9.5767 7.94088 9.31392C7.74575 9.05127 7.62904 8.73866 7.60452 8.41229C7.5862 7.94938 7.76271 7.49992 8.09106 7.17323C8.41941 6.8464 8.86961 6.672 9.33252 6.69261H16.4437C16.6832 7.4993 16.8611 8.32312 16.9757 9.15662C17.1657 10.5519 17.2762 11.9568 17.3066 13.3648L17.3064 13.3647ZM17.3145 15.0977V15.0975C17.2997 15.853 16.9184 16.5539 16.2923 16.9767C15.666 17.3995 14.8732 17.4914 14.167 17.2229L2.16713 12.6911C1.80003 12.5545 1.50953 12.2665 1.37029 11.9004C-0.422046 7.12296 1.28673 2.30749 6.23807 0.983684C8.61201 0.348326 11.2574 0.713167 13.1427 1.93329C14.525 2.82826 15.5406 4.17733 16.2148 6.01438H9.33223L9.33208 6.01423C8.68297 5.9938 8.05459 6.24463 7.59819 6.70648C7.14179 7.1685 6.89835 7.79974 6.92668 8.44855C6.95847 8.90343 7.11877 9.34018 7.38884 9.70772C7.65906 10.0753 8.02781 10.3587 8.45258 10.5249L17.3177 14.1003C17.3203 14.4349 17.3202 14.7683 17.3141 15.0973L17.3145 15.0977Z" fill="#FEBB9A"/>
</svg>
