<svg width="28" height="28" viewBox="0 0 28 28" fill="none" xmlns="http://www.w3.org/2000/svg">
<path d="M20.072 21.5632C20.4313 21.7113 20.8072 21.8129 21.1904 21.8661L16.6649 26.387C16.6648 26.3871 16.6648 26.3872 16.6647 26.3873C15.9602 27.0893 15.0055 27.4837 14.0101 27.4837C13.0147 27.4837 12.0601 27.0893 11.3556 26.3873C11.3555 26.3872 11.3554 26.3871 11.3553 26.387L6.87359 21.9105C7.35213 21.8728 7.82258 21.7602 8.26754 21.5763C8.82752 21.3447 9.33606 21.0046 9.76379 20.5757C9.76389 20.5755 9.764 20.5754 9.76411 20.5753L13.9731 16.3713C14.0282 16.3201 14.1009 16.2915 14.1765 16.2915C14.252 16.2915 14.3246 16.3201 14.3798 16.3712L18.575 20.5642C19.0031 20.9927 19.5119 21.3322 20.072 21.5632Z" stroke="#C94403"/>
<path d="M21.8418 6.0879H21.8373H21.8418ZM21.1797 6.13333C20.7996 6.18724 20.427 6.28879 20.0707 6.43621C19.5107 6.66793 19.0023 7.00838 18.575 7.43784C18.5747 7.43809 18.5745 7.43834 18.5742 7.43859L14.3763 11.6315C14.3762 11.6316 14.3761 11.6317 14.376 11.6318C14.3233 11.6842 14.2519 11.7136 14.1773 11.7136C14.1027 11.7136 14.0312 11.6841 13.9785 11.6316C13.9784 11.6316 13.9784 11.6316 13.9784 11.6315L9.76503 7.42227C9.76494 7.42218 9.76484 7.42208 9.76474 7.42198C9.33704 6.99292 8.82848 6.6528 8.26846 6.42124C7.82304 6.23706 7.35207 6.12447 6.87303 6.08689L11.3469 1.61453C11.6954 1.26633 12.1092 0.990093 12.5646 0.801612C13.02 0.613132 13.5082 0.516113 14.0013 0.516113C14.4943 0.516113 14.9825 0.613132 15.4379 0.801612C15.8934 0.990093 16.3071 1.26633 16.6556 1.61453L16.6557 1.61459L21.1797 6.13333Z" stroke="#C94403"/>
<mask id="path-3-inside-1_1054_11984" fill="white">
<path d="M26.7538 10.995L23.5309 7.7759C23.4582 7.80557 23.3806 7.82121 23.3021 7.82197H21.8365C21.0739 7.82388 20.3429 8.12639 19.8024 8.66374L15.6028 12.8557C15.2246 13.2328 14.712 13.4446 14.1777 13.4446C13.6433 13.4446 13.1307 13.2328 12.7525 12.8557L8.53694 8.64779C7.99657 8.11012 7.26553 7.80728 6.50279 7.80514H4.70372C4.62958 7.80347 4.55631 7.78877 4.48727 7.76172L1.24398 10.995C0.447382 11.7924 0 12.8728 0 13.9992C0 15.1257 0.447382 16.2061 1.24398 17.0034L4.48017 20.2358C4.54906 20.2083 4.62243 20.1936 4.69663 20.1924H6.50279C7.26551 20.1902 7.99652 19.8874 8.53694 19.3498L12.7516 15.14C13.5136 14.3798 14.8417 14.3798 15.6028 15.14L19.8024 19.3338C20.3429 19.8712 21.0739 20.1737 21.8365 20.1756H23.3021C23.3806 20.1761 23.4583 20.1918 23.5309 20.2217L26.7538 17.0026C27.1489 16.6081 27.4623 16.1397 27.6761 15.6243C27.8899 15.1088 28 14.5563 28 13.9983C28 13.4404 27.8899 12.8879 27.6761 12.3724C27.4623 11.8569 27.1489 11.3886 26.7538 10.9941"/>
</mask>
<path d="M23.5309 7.7759L24.2376 7.06837L23.7678 6.59908L23.153 6.85007L23.5309 7.7759ZM23.3021 7.82197V8.82202L23.3118 8.82192L23.3021 7.82197ZM21.8365 7.82197V6.82197L21.834 6.82197L21.8365 7.82197ZM19.8024 8.66374L19.0974 7.95456L19.0959 7.95599L19.8024 8.66374ZM15.6028 12.8557L16.3088 13.5639L16.3093 13.5635L15.6028 12.8557ZM12.7525 12.8557L12.046 13.5635L12.0465 13.5639L12.7525 12.8557ZM8.53694 8.64779L9.24341 7.94004L9.24228 7.93892L8.53694 8.64779ZM6.50279 7.80514L6.5056 6.80514H6.50279V7.80514ZM4.70372 7.80514L4.68124 8.80488L4.69248 8.80514H4.70372V7.80514ZM4.48727 7.76172L4.8521 6.83065L4.24388 6.59232L3.78125 7.05352L4.48727 7.76172ZM1.24398 10.995L0.537966 10.2868L0.536537 10.2882L1.24398 10.995ZM0 13.9992H-1H0ZM1.24398 17.0034L0.536536 17.7102L0.537289 17.711L1.24398 17.0034ZM4.48017 20.2358L3.77348 20.9434L4.23969 21.409L4.85151 21.1643L4.48017 20.2358ZM4.69663 20.1924V19.1924H4.68888L4.68113 19.1925L4.69663 20.1924ZM6.50279 20.1924V21.1924L6.50572 21.1924L6.50279 20.1924ZM8.53694 19.3498L9.24219 20.0587L9.24363 20.0573L8.53694 19.3498ZM12.7516 15.14L12.0453 14.4321L12.0449 14.4325L12.7516 15.14ZM15.6028 15.14L14.8961 15.8476L14.8962 15.8476L15.6028 15.14ZM19.8024 19.3338L19.0958 20.0414L19.0974 20.043L19.8024 19.3338ZM21.8365 20.1756L21.834 21.1756H21.8365V20.1756ZM23.3021 20.1756L23.309 19.1756H23.3021V20.1756ZM23.5309 20.2217L23.1504 21.1464L23.7664 21.3999L24.2376 20.9292L23.5309 20.2217ZM26.7538 17.0026L26.0473 16.2949L26.0471 16.295L26.7538 17.0026ZM27.4605 10.2875L24.2376 7.06837L22.8242 8.48342L26.0471 11.7025L27.4605 10.2875ZM23.153 6.85007C23.1973 6.832 23.2445 6.82249 23.2923 6.82202L23.3118 8.82192C23.5166 8.81993 23.7192 8.77914 23.9089 8.70172L23.153 6.85007ZM23.3021 6.82197H21.8365V8.82197H23.3021V6.82197ZM21.834 6.82197C20.8083 6.82454 19.8248 7.23143 19.0974 7.95456L20.5074 9.37292C20.8611 9.02135 21.3396 8.82322 21.839 8.82197L21.834 6.82197ZM19.0959 7.95599L14.8963 12.148L16.3093 13.5635L20.5089 9.37149L19.0959 7.95599ZM14.8968 12.1476C14.7061 12.3377 14.4475 12.4446 14.1777 12.4446V14.4446C14.9766 14.4446 15.7431 14.128 16.3088 13.5639L14.8968 12.1476ZM14.1777 12.4446C13.9078 12.4446 13.6492 12.3377 13.4586 12.1476L12.0465 13.5639C12.6122 14.128 13.3787 14.4446 14.1777 14.4446V12.4446ZM13.459 12.148L9.24341 7.94005L7.83047 9.35554L12.046 13.5635L13.459 12.148ZM9.24228 7.93892C8.51509 7.21535 7.53154 6.80802 6.5056 6.80514L6.49998 8.80513C6.99951 8.80653 7.47806 9.00488 7.8316 9.35666L9.24228 7.93892ZM6.50279 6.80514H4.70372V8.80514H6.50279V6.80514ZM4.72621 6.80539C4.7693 6.80636 4.81192 6.8149 4.8521 6.83065L4.12243 8.69279C4.3007 8.76264 4.48985 8.80058 4.68124 8.80488L4.72621 6.80539ZM3.78125 7.05352L0.537967 10.2868L1.94999 11.7032L5.19328 8.46992L3.78125 7.05352ZM0.536537 10.2882C-0.447268 11.273 -1 12.6076 -1 13.9992H1C1 13.138 1.34203 12.3117 1.95142 11.7018L0.536537 10.2882ZM-1 13.9992C-1 15.3909 -0.447268 16.7255 0.536537 17.7102L1.95142 16.2967C1.34203 15.6867 1 14.8604 1 13.9992H-1ZM0.537289 17.711L3.77348 20.9434L5.18686 19.5283L1.95067 16.2959L0.537289 17.711ZM4.85151 21.1643C4.80711 21.1821 4.75987 21.1916 4.71212 21.1923L4.68113 19.1925C4.48498 19.1956 4.29102 19.2345 4.10883 19.3073L4.85151 21.1643ZM4.69663 21.1924H6.50279V19.1924H4.69663V21.1924ZM6.50572 21.1924C7.53156 21.1894 8.51498 20.7821 9.24219 20.0587L7.83169 18.6408C7.47805 18.9926 6.99946 19.191 6.49986 19.1924L6.50572 21.1924ZM9.24363 20.0573L13.4583 15.8476L12.0449 14.4325L7.83025 18.6422L9.24363 20.0573ZM13.4579 15.848C13.8298 15.4769 14.5256 15.4775 14.8961 15.8476L16.3095 14.4325C15.1577 13.2821 13.1975 13.2827 12.0453 14.4321L13.4579 15.848ZM14.8962 15.8476L19.0958 20.0414L20.509 18.6262L16.3094 14.4324L14.8962 15.8476ZM19.0974 20.043C19.8248 20.7661 20.8083 21.173 21.834 21.1756L21.839 19.1756C21.3396 19.1743 20.8611 18.9762 20.5074 18.6246L19.0974 20.043ZM21.8365 21.1756H23.3021V19.1756H21.8365V21.1756ZM23.2951 21.1756C23.2455 21.1752 23.1964 21.1653 23.1504 21.1464L23.9115 19.2969C23.7203 19.2182 23.5157 19.1771 23.309 19.1756L23.2951 21.1756ZM24.2376 20.9292L27.4605 17.7101L26.0471 16.295L22.8242 19.5141L24.2376 20.9292ZM27.4604 17.7102C27.9484 17.2229 28.3356 16.6443 28.5998 16.0074L26.7524 15.2411C26.589 15.6352 26.3494 15.9933 26.0473 16.2949L27.4604 17.7102ZM28.5998 16.0074C28.864 15.3705 29 14.6878 29 13.9983H27C27 14.4248 26.9159 14.8471 26.7524 15.2411L28.5998 16.0074ZM29 13.9983C29 13.3089 28.864 12.6262 28.5998 11.9892L26.7524 12.7556C26.9159 13.1496 27 13.5719 27 13.9983H29ZM28.5998 11.9892C28.3356 11.3523 27.9484 10.7737 27.4604 10.2865L26.0473 11.7018C26.3494 12.0034 26.589 12.3615 26.7524 12.7556L28.5998 11.9892Z" fill="#C94403" mask="url(#path-3-inside-1_1054_11984)"/>
</svg>
