<svg width="26" height="32" viewBox="0 0 26 32" fill="none" xmlns="http://www.w3.org/2000/svg">
<path d="M19.0895 4.43848H2.99919C1.76412 4.43848 0.769318 5.43328 0.769318 6.66835V29.2085C0.769318 30.4436 1.76412 31.4384 2.99919 31.4384H19.0895C20.3246 31.4384 21.3194 30.4436 21.3194 29.2085V6.70266C21.3194 5.46758 20.3246 4.47278 19.0895 4.43854V4.43848ZM20.0501 29.2086C20.0501 29.7231 19.604 30.1692 19.0895 30.1692H2.99919C2.48468 30.1692 2.03858 29.7231 2.03858 29.2086V6.70278C2.03858 6.18826 2.48465 5.74217 2.99919 5.74217H19.0895C19.604 5.74217 20.0501 6.18824 20.0501 6.70278V29.2086Z" fill="#C94403"/>
<path d="M10.4098 12.9809C9.75785 13.2554 9.34628 13.9073 9.34628 14.5934C9.34628 15.554 10.101 16.343 11.0274 16.343C11.2677 16.343 11.439 16.5488 11.439 16.8233C11.439 17.0978 11.2332 17.3036 11.0274 17.3036C10.7871 17.3036 10.6158 17.0978 10.6158 16.8233C10.6158 16.4801 10.3413 16.1714 9.96389 16.1714C9.58647 16.1714 9.31198 16.4459 9.31198 16.8233C9.31198 17.5439 9.7236 18.1613 10.3755 18.4358C10.4441 18.779 10.7871 19.019 11.1302 18.9503C11.4047 18.9161 11.6105 18.71 11.6447 18.4358C12.2966 18.1613 12.7082 17.5094 12.7082 16.7891C12.7082 15.8285 11.9534 15.0394 11.0271 15.0394C10.7868 15.0394 10.6155 14.8336 10.6155 14.5591C10.6155 14.2847 10.8213 14.0789 11.0271 14.0789C11.2674 14.0789 11.4387 14.2847 11.4387 14.5591C11.4387 14.9023 11.7132 15.2111 12.0906 15.2111C12.4338 15.2111 12.7425 14.9366 12.7425 14.5591C12.7425 13.8386 12.3309 13.2211 11.679 12.9467C11.6104 12.6035 11.2674 12.3635 10.9243 12.4322C10.65 12.5006 10.444 12.7064 10.4098 12.9809V12.9809Z" fill="#C94403"/>
<path d="M14.9725 11.6429C14.698 11.8832 14.6638 12.2603 14.9038 12.5349C16.6535 14.6619 16.3789 17.8181 14.2519 19.5679C14.0116 19.7737 13.7716 19.9453 13.4972 20.0824C13.6687 19.808 13.5658 19.465 13.3256 19.2934C13.2227 19.2248 13.0853 19.1905 12.9482 19.2248C12.811 19.259 12.6737 19.3277 12.5708 19.4306L11.4044 20.9057C11.1986 21.1459 11.2672 21.5231 11.5073 21.6947L12.9824 22.8611C13.2227 23.0669 13.5998 22.9982 13.7714 22.7582C13.9772 22.5179 13.9085 22.1408 13.6685 21.9692L13.2224 21.626C16.4816 20.4251 18.1283 16.823 16.9619 13.5637C16.7216 12.9118 16.3445 12.2599 15.8984 11.7112C15.6244 11.4372 15.247 11.403 14.9725 11.643L14.9725 11.6429Z" fill="#C94403"/>
<path d="M7.18473 18.8819C5.4351 16.7549 5.70962 13.6328 7.83664 11.8488C8.07691 11.643 8.31693 11.4714 8.59141 11.3343C8.41982 11.6088 8.52272 11.9517 8.76299 12.1233C8.8659 12.192 9.00326 12.2262 9.14039 12.192C9.27752 12.1578 9.41488 12.0891 9.51779 11.9862L10.6842 10.5111C10.89 10.2708 10.8213 9.89367 10.5813 9.72207L9.10617 8.55568C9.00327 8.45277 8.83168 8.41855 8.69456 8.45277C8.38584 8.48699 8.14558 8.76148 8.21426 9.07019C8.24848 9.20731 8.31716 9.34468 8.42007 9.44758L8.86614 9.79076C5.60698 10.9916 3.96027 14.5937 5.12667 17.8531C5.36694 18.505 5.74408 19.1568 6.19015 19.7055C6.43042 19.98 6.80756 20.0143 7.08208 19.8084C7.39056 19.5679 7.42502 19.1905 7.18475 18.8818L7.18473 18.8819Z" fill="#C94403"/>
<path d="M13.5317 24.165H8.52264C7.6307 24.165 6.94437 24.8856 6.94437 25.7433V26.4639C6.94437 27.3558 7.66495 28.0422 8.52264 28.0422H13.5317C14.4236 28.0422 15.11 27.3216 15.11 26.4639V25.7433C15.1097 24.8854 14.4236 24.165 13.5317 24.165ZM13.8404 26.4978C13.8404 26.6694 13.7033 26.8066 13.5317 26.8066H8.52264C8.35105 26.8066 8.21393 26.6694 8.21393 26.4978V25.7773C8.21393 25.6057 8.35105 25.4685 8.52264 25.4685H13.5317C13.7033 25.4685 13.8404 25.6057 13.8404 25.7773V26.4978Z" fill="#C94403"/>
<path d="M22.9663 0.561523H6.87596C5.64089 0.561523 4.64609 1.55632 4.64609 2.7914V3.13457C4.64609 3.47775 4.92058 3.78648 5.29799 3.78648C5.64117 3.78648 5.9499 3.51199 5.9499 3.13457V2.7914C5.9499 2.27688 6.39597 1.83078 6.91052 1.83078H23.0008C23.5153 1.83078 23.9614 2.27686 23.9614 2.7914V25.3315C23.9614 25.846 23.5153 26.2921 23.0008 26.2921H22.6576C22.3145 26.2921 22.0057 26.5666 22.0057 26.944C22.0057 27.2872 22.2802 27.596 22.6576 27.596H23.0008C24.2359 27.596 25.2307 26.6012 25.2307 25.3661V2.79164C25.2307 1.55657 24.2014 0.561768 22.9663 0.561768L22.9663 0.561523Z" fill="#C94403"/>
</svg>
