<svg width="68" height="45" viewBox="0 0 68 45" fill="none" xmlns="http://www.w3.org/2000/svg">
<path d="M1.02205 43.5575C0.93704 43.8834 1.18291 44.2016 1.51965 44.2016H26.3667C28.1498 44.2016 29.5954 42.756 29.5954 40.9729V39.5988C29.5954 37.4376 31.3476 35.6861 33.5082 35.6861C35.86 35.6861 37.7659 33.7794 37.7659 31.4283C37.7659 29.0765 35.8593 27.1706 33.5082 27.1706H26.3659C24.5828 27.1706 23.1372 25.7249 23.1372 23.9418C23.1372 22.0789 21.6268 20.5692 19.7646 20.5692H7.13518" fill="#353133"/>
<path d="M60.8648 20.5685H55.1938C53.3843 20.5685 51.7692 21.8913 51.5974 23.6925C51.4859 24.8594 51.9537 25.9208 52.747 26.6244C54.1391 27.8599 55.0454 29.5488 55.0454 31.4095V31.872C55.0454 33.9105 53.3933 35.5626 51.3549 35.5626H48.2203C45.8549 35.5626 43.7923 37.3856 43.7215 39.7495C43.6484 42.1963 45.6093 44.2024 48.0395 44.2024C48.0395 44.2024 59.0127 44.2024 66.4804 44.2024C66.7055 44.2024 66.9275 44.2024 67.1459 44.2024" fill="#353133"/>
<path d="M26.3666 44.9548H6.88052C6.46468 44.9548 6.1272 44.6181 6.1272 44.2015C6.1272 43.7849 6.46468 43.4482 6.88052 43.4482H26.3666C27.7317 43.4482 28.842 42.337 28.842 40.9728V39.5987C28.842 37.0254 30.9355 34.9327 33.5081 34.9327C35.4404 34.9327 37.0126 33.3605 37.0126 31.4282C37.0126 29.496 35.4404 27.9238 33.5081 27.9238H26.3666C24.1707 27.9238 22.3846 26.1369 22.3846 23.9417C22.3846 22.4976 21.2094 21.3224 19.7645 21.3224H13.1609C12.7451 21.3224 12.4076 20.9849 12.4076 20.5691C12.4076 20.1533 12.7451 19.8158 13.1609 19.8158H19.7645C22.0403 19.8158 23.8912 21.6667 23.8912 23.9417C23.8912 25.3067 25.0016 26.4171 26.3666 26.4171H33.5081C36.2713 26.4171 38.5192 28.665 38.5192 31.4282C38.5192 34.1914 36.2713 36.4393 33.5081 36.4393C31.7657 36.4393 30.3487 37.857 30.3487 39.5987V40.9728C30.3487 43.1687 28.5626 44.9548 26.3666 44.9548Z" fill="#F14902"/>
<path d="M27.86 44.9548H8.37393C7.95809 44.9548 7.62061 44.6181 7.62061 44.2015C7.62061 43.7849 7.95809 43.4482 8.37393 43.4482H27.86C29.2251 43.4482 30.3355 42.337 30.3355 40.9728V39.5987C30.3355 37.0254 32.4289 34.9327 35.0015 34.9327C36.9338 34.9327 38.506 33.3605 38.506 31.4282C38.506 29.496 36.9338 27.9238 35.0015 27.9238H27.86C25.6641 27.9238 23.878 26.1369 23.878 23.9417C23.878 22.4976 22.7028 21.3224 21.258 21.3224H14.6544C14.2385 21.3224 13.901 20.9849 13.901 20.5691C13.901 20.1533 14.2385 19.8158 14.6544 19.8158H21.258C23.5337 19.8158 25.3846 21.6667 25.3846 23.9417C25.3846 25.3067 26.495 26.4171 27.86 26.4171H35.0015C37.7647 26.4171 40.0126 28.665 40.0126 31.4282C40.0126 34.1914 37.7647 36.4393 35.0015 36.4393C33.2591 36.4393 31.8421 37.857 31.8421 39.5987V40.9728C31.8421 43.1687 30.056 44.9548 27.86 44.9548Z" fill="#F14902"/>
<path d="M61.1196 44.9548H48.039C46.6552 44.9548 45.3617 44.4072 44.3982 43.4143C43.4347 42.4214 42.927 41.1114 42.9684 39.726C43.0498 37.0148 45.4054 34.8091 48.2206 34.8091H51.3551C52.9748 34.8091 54.2923 33.4916 54.2923 31.8719V31.4101C54.2923 29.8583 53.5661 28.3584 52.247 27.1885C51.2278 26.2846 50.7178 24.9843 50.8481 23.6216C51.0523 21.4874 52.9612 19.8158 55.1948 19.8158H55.5925C56.0091 19.8158 56.3459 20.1533 56.3459 20.5691C56.3459 20.9849 56.0091 21.3224 55.5925 21.3224H55.1948C53.7296 21.3224 52.4791 22.3952 52.348 23.7647C52.2651 24.6431 52.5921 25.48 53.2475 26.0616C54.8935 27.5223 55.7997 29.4221 55.7997 31.4109V31.8727C55.7997 34.3232 53.8064 36.3165 51.3559 36.3165H48.2213C46.213 36.3165 44.5331 37.8668 44.4758 39.7727C44.4464 40.7475 44.8035 41.6688 45.4807 42.3664C46.158 43.064 47.0665 43.4497 48.0398 43.4497H61.1196C61.5362 43.4497 61.873 43.7864 61.873 44.203C61.873 44.6196 61.5362 44.9548 61.1196 44.9548Z" fill="#F14902"/>
<path d="M59.6262 44.9548H46.5456C45.1618 44.9548 43.8683 44.4072 42.9048 43.4143C41.9413 42.4214 41.4336 41.1114 41.475 39.726C41.5564 37.0148 43.912 34.8091 46.7271 34.8091H49.8617C51.4813 34.8091 52.7989 33.4916 52.7989 31.8719V31.4101C52.7989 29.8583 52.0727 28.3584 50.7536 27.1885C49.7344 26.2846 49.2244 24.9843 49.3547 23.6216C49.5589 21.4874 51.4678 19.8158 53.7014 19.8158H54.0991C54.5157 19.8158 54.8524 20.1533 54.8524 20.5691C54.8524 20.9849 54.5157 21.3224 54.0991 21.3224H53.7014C52.2362 21.3224 50.9857 22.3952 50.8546 23.7647C50.7717 24.6431 51.0987 25.48 51.754 26.0616C53.4001 27.5223 54.3063 29.4221 54.3063 31.4109V31.8727C54.3063 34.3232 52.313 36.3165 49.8625 36.3165H46.7279C44.7196 36.3165 43.0396 37.8668 42.9824 39.7727C42.953 40.7475 43.3101 41.6688 43.9873 42.3664C44.6646 43.064 45.5731 43.4497 46.5464 43.4497H59.6262C60.0428 43.4497 60.3796 43.7864 60.3796 44.203C60.3796 44.6196 60.0428 44.9548 59.6262 44.9548Z" fill="#F14902"/>
<path d="M34.0002 30.3271C38.8584 24.3849 43.7158 16.7289 43.7158 11.363C43.7158 5.99713 39.3661 1.64746 34.0002 1.64746C28.6343 1.64746 24.2847 5.99713 24.2847 11.363C24.2847 16.7289 29.1421 24.3849 34.0002 30.3271Z" fill="#FFA2A2"/>
<path d="M34.0001 31.0803C33.7741 31.0803 33.5602 30.9786 33.4171 30.8038C30.4445 27.1683 23.5312 17.9952 23.5312 11.3629C23.5312 5.59024 28.2274 0.894043 34.0001 0.894043C39.7728 0.894043 44.469 5.59024 44.469 11.3629C44.469 17.9944 37.555 27.1668 34.5832 30.8038C34.4401 30.9794 34.2261 31.0803 34.0001 31.0803ZM34.0001 2.40068C29.0584 2.40068 25.0379 6.42115 25.0379 11.3629C25.0379 17.1236 30.9017 25.2406 34.0001 29.1277C37.0993 25.2406 42.9624 17.1228 42.9624 11.3629C42.9624 6.42115 38.9427 2.40068 34.0001 2.40068Z" fill="#F14902"/>
<path d="M33.9195 32.2543C33.6791 32.2543 33.4515 32.1461 33.2993 31.9603C30.1375 28.0934 22.7844 18.3365 22.7844 11.2823C22.7844 5.14224 27.7794 0.147217 33.9195 0.147217C40.0595 0.147217 45.0545 5.14224 45.0545 11.2823C45.0545 18.3357 37.7006 28.0918 34.5396 31.9603C34.3874 32.1469 34.1598 32.2543 33.9195 32.2543ZM33.9195 1.74973C28.6632 1.74973 24.3869 6.02603 24.3869 11.2823C24.3869 17.4095 30.6239 26.043 33.9195 30.1775C37.2158 26.043 43.452 17.4087 43.452 11.2823C43.452 6.02603 39.1765 1.74973 33.9195 1.74973Z" fill="#F14902"/>
<path d="M34.0002 16.1102C31.5655 16.1102 29.5842 14.1298 29.5842 11.6943C29.5842 9.2588 31.5655 7.27832 34.0002 7.27832C36.4349 7.27832 38.4162 9.25955 38.4162 11.6943C38.4162 14.129 36.4349 16.1102 34.0002 16.1102ZM34.0002 8.78496C32.3956 8.78496 31.0909 10.0897 31.0909 11.6943C31.0909 13.2981 32.3956 14.6036 34.0002 14.6036C35.6048 14.6036 36.9095 13.2989 36.9095 11.6943C36.9095 10.0905 35.6048 8.78496 34.0002 8.78496Z" fill="#F14902"/>
<path d="M34.0642 15.4917C32.0058 15.4917 30.3308 13.8173 30.3308 11.7583C30.3308 9.69926 32.0058 8.0249 34.0642 8.0249C36.1226 8.0249 37.7976 9.69989 37.7976 11.7583C37.7976 13.8167 36.1226 15.4917 34.0642 15.4917ZM34.0642 9.29866C32.7076 9.29866 31.6046 10.4017 31.6046 11.7583C31.6046 13.1142 32.7076 14.2179 34.0642 14.2179C35.4207 14.2179 36.5238 13.1148 36.5238 11.7583C36.5238 10.4024 35.4207 9.29866 34.0642 9.29866Z" fill="#F14902"/>
</svg>
