<svg width="65" height="84" viewBox="0 0 65 84" fill="none" xmlns="http://www.w3.org/2000/svg">
<path d="M54.4047 82H10.5952C8.27135 82 6.04273 81.0635 4.39955 79.3965C2.75638 77.7295 1.83325 75.4686 1.83325 73.1111V10.8889C1.83325 8.53141 2.75638 6.27048 4.39955 4.60349C6.04273 2.9365 8.27135 2 10.5952 2H35.0672C36.229 2.00025 37.3431 2.46867 38.1645 3.30222L61.883 27.3644C62.7046 28.1977 63.1663 29.328 63.1666 30.5067V51.8089V73.1111C63.1666 75.4686 62.2435 77.7295 60.6003 79.3965C58.9571 81.0635 56.7285 82 54.4047 82Z" stroke="#71717A" stroke-width="2.5" stroke-linecap="round"/>
<path d="M12.5 54L16.9444 49.5556M16.9444 49.5556V71.7778C16.9444 72.3671 17.1786 72.9324 17.5953 73.3491C18.0121 73.7659 18.5773 74 19.1667 74H25.8333M16.9444 49.5556L24.7222 41.7778L32.5 34L48.0556 49.5556M48.0556 49.5556L52.5 54M48.0556 49.5556V71.7778C48.0556 72.3671 47.8214 72.9324 47.4047 73.3491C46.9879 73.7659 46.4227 74 45.8333 74H39.1667M25.8333 74C26.4227 74 26.9879 73.7659 27.4047 73.3491C27.8214 72.9324 28.0556 72.3671 28.0556 71.7778V62.8889C28.0556 62.2995 28.2897 61.7343 28.7064 61.3175C29.1232 60.9008 29.6884 60.6667 30.2778 60.6667H34.7222C35.3116 60.6667 35.8768 60.9008 36.2936 61.3175C36.7103 61.7343 36.9444 62.2995 36.9444 62.8889V71.7778C36.9444 72.3671 37.1786 72.9324 37.5953 73.3491C38.0121 73.7659 38.5773 74 39.1667 74M25.8333 74H39.1667" stroke="#71717A" stroke-width="2.5" stroke-linecap="round"/>
<rect x="10" y="23" width="8" height="2" fill="#71717A"/>
<rect x="10" y="28" width="8" height="2" fill="#71717A"/>
<rect x="21" y="23" width="6" height="2" fill="#71717A"/>
<rect x="30" y="23" width="7" height="2" fill="#71717A"/>
<rect x="10" y="18" width="27" height="2" fill="#71717A"/>
<rect x="10" y="13" width="12" height="2" fill="#71717A"/>
<rect x="25" y="13" width="12" height="2" fill="#71717A"/>
</svg>
