<svg width="68" height="67" viewBox="0 0 68 67" fill="none" xmlns="http://www.w3.org/2000/svg">
<path d="M37.9295 54.9221C35.9238 54.9221 34.2766 56.5786 34.2766 58.5844C34.2766 60.5901 35.9238 62.2466 37.9295 62.2466H47.9472C49.9529 62.2466 51.6094 60.5901 51.6094 58.5844C51.6094 56.5786 49.9529 54.9221 47.9472 54.9221H37.9295Z" fill="#FFCD40"/>
<path d="M34.1276 4.18175C27.7835 4.15789 21.9968 5.99893 17.7267 9.09271C13.4566 12.1865 10.673 16.6016 10.6165 21.5611C10.6127 21.896 10.7421 22.2187 10.9763 22.4582C11.2104 22.6977 11.53 22.8344 11.8649 22.8382C12.1998 22.842 12.5225 22.7126 12.762 22.4785C13.0014 22.2443 13.1381 21.9247 13.1419 21.5898C13.1534 20.6111 13.714 19.6443 14.81 18.8594C15.9059 18.0746 17.5101 17.5384 19.2923 17.5455C21.0741 17.5503 22.6567 18.1016 23.7373 18.8967C24.8152 19.6899 25.3689 20.6538 25.3681 21.6551C25.3681 21.6576 25.3681 21.6598 25.3681 21.6645C25.3656 21.9994 25.4962 22.3216 25.7312 22.5601C25.9662 22.7987 26.2864 22.9341 26.6212 22.9367C26.9561 22.9392 27.2782 22.8085 27.5168 22.5735C27.7554 22.3386 27.8908 22.0185 27.8934 21.6836C27.8935 21.681 27.8934 21.6789 27.8934 21.6741C27.9077 20.6342 28.4706 19.6603 29.5615 18.8692C30.655 18.0762 32.2523 17.5388 34.0345 17.5459C35.8163 17.5507 37.4082 18.102 38.4888 18.8972C39.5667 19.6904 40.1111 20.6543 40.1103 21.6555C40.1103 21.658 40.1103 21.6602 40.1103 21.665C40.1078 21.9998 40.2384 22.322 40.4734 22.5606C40.7084 22.7991 41.0286 22.9346 41.3634 22.9371C41.6983 22.9396 42.0204 22.8089 42.259 22.574C42.4976 22.339 42.633 22.0189 42.6356 21.684C42.6357 21.6815 42.6356 21.6793 42.6356 21.6746C42.6499 20.6346 43.2128 19.6607 44.3037 18.8696C45.3972 18.0766 46.9945 17.5392 48.7767 17.5464C50.5585 17.5512 52.1509 18.1007 53.231 18.8976C54.3111 19.6945 54.8561 20.6661 54.8525 21.6839C54.8512 22.0188 54.983 22.3404 55.2189 22.5781C55.4548 22.8157 55.7755 22.95 56.1104 22.9512C56.4452 22.9525 56.7669 22.8206 57.0046 22.5847C57.2423 22.3489 57.3765 22.0282 57.3778 21.6934C57.395 16.7602 54.6796 12.337 50.454 9.2156C46.2285 6.09234 40.4718 4.20723 34.1276 4.18175Z" fill="#353133"/>
<path d="M34.1273 4.18159C33.6522 4.17983 33.188 4.21027 32.7195 4.22935C38.6178 4.45932 43.9552 6.27953 47.9296 9.21719C52.1516 12.3361 54.8656 16.7549 54.853 21.683C54.853 21.6872 54.853 21.6927 54.853 21.6974C54.8532 21.7117 54.8532 21.7213 54.853 21.7356C54.9055 23.3898 57.3737 23.3536 57.3777 21.6974C57.3949 16.7643 54.6799 12.3405 50.4544 9.21908C46.2289 6.09582 40.4714 4.20984 34.1273 4.18436V4.18159Z" fill="#353133"/>
<path d="M37.9281 54.9204C36.2651 54.9204 34.7476 56.8876 34.312 58.42C34.6247 58.3313 35.1813 58.2435 35.5208 58.2435H45.5384C47.5442 58.2435 49.0848 59.1033 49.0848 61.1091C49.0848 61.4483 49.0206 61.7702 48.932 62.0829C50.4639 61.6472 51.6096 60.247 51.6096 58.5843C51.6096 56.5785 49.9515 54.9204 47.9457 54.9204H37.9281Z" fill="#F8A92D"/>
<path d="M37.9295 50.1138C35.9238 50.1138 34.2766 51.7703 34.2766 53.776C34.2766 55.7818 35.9238 57.429 37.9295 57.429H47.9472C49.9529 57.429 51.6094 55.7818 51.6094 53.776C51.6094 51.7703 49.9529 50.1138 47.9472 50.1138H37.9295Z" fill="#FFCD40"/>
<path d="M37.9291 50.113C36.2661 50.113 34.866 51.2583 34.4304 52.7907C34.7431 52.702 35.0648 52.638 35.4043 52.638H45.4219C47.4277 52.638 49.0858 54.2961 49.0858 56.3018C49.0858 56.6411 49.0215 56.9629 48.9329 57.2756C50.4649 56.84 51.6105 55.4398 51.6105 53.777C51.6105 51.7713 49.9524 50.1132 47.9467 50.1132L37.9291 50.113Z" fill="#F8A92D"/>
<path d="M38.6832 31.9975C38.3718 32.0023 38.0738 32.1252 37.8497 32.3414C36.4276 33.7034 35.5159 35.7782 34.5972 37.3786C33.7813 38.8003 32.8133 40.4542 32.2417 42.2257C31.6701 43.9971 31.5082 46.0139 32.5588 47.8154C34.5087 51.1589 38.2367 52.0162 41.6185 51.992C44.9983 52.0206 48.7048 51.1516 50.6511 47.8154C51.7019 46.0143 51.5488 43.997 50.9773 42.2257C50.4047 40.4544 49.4367 38.8093 48.6207 37.3878C47.8001 35.9581 47.1497 33.8152 45.7579 32.3777C45.5314 32.1447 45.2217 32.0111 44.8968 32.0061C41.7561 31.9584 41.6975 31.9583 38.6818 31.9965L38.6832 31.9975Z" fill="#1B1B1B"/>
<path d="M35.4696 24.7948C35.258 24.795 35.0499 24.8484 34.8644 24.95C34.6788 25.0516 34.5218 25.1982 34.4077 25.3763C34.2936 25.5545 34.2261 25.7584 34.2113 25.9694C34.1966 26.1804 34.2351 26.3917 34.3234 26.584L37.6688 33.806C37.7681 34.0226 37.9267 34.2067 38.1262 34.337C38.3257 34.4673 38.5581 34.5384 38.7963 34.5422L45.2542 34.5899C45.4936 34.5913 45.7285 34.5246 45.9315 34.3976C46.1344 34.2705 46.2971 34.0884 46.4004 33.8724L49.8856 26.6038C49.9781 26.4108 50.0199 26.1973 50.0073 25.9837C49.9946 25.77 49.9279 25.5631 49.8132 25.3823C49.6986 25.2016 49.54 25.0529 49.3521 24.9503C49.1643 24.8477 48.9534 24.7947 48.7394 24.796L35.4696 24.7948Z" fill="#1B1B1B"/>
<path d="M35.4685 24.7942C35.257 24.7947 35.0491 24.8482 34.8637 24.95C34.6784 25.0518 34.5216 25.1986 34.4077 25.3768C34.2938 25.5549 34.2265 25.7588 34.212 25.9698C34.1974 26.1808 34.2361 26.392 34.3245 26.5841L34.6647 27.3188L46.2135 27.3213C46.4274 27.32 46.6382 27.3733 46.826 27.4758C47.0138 27.5783 47.1725 27.7268 47.2871 27.9075C47.4018 28.0882 47.4686 28.2951 47.4813 28.5087C47.494 28.7223 47.4523 28.9357 47.36 29.1287L44.744 34.585L45.2544 34.5898C45.4938 34.5912 45.7288 34.5245 45.9318 34.3974C46.1348 34.2704 46.2975 34.0882 46.4008 33.8722L49.8847 26.6038C49.977 26.4107 50.0188 26.1974 50.006 25.9838C49.9933 25.7702 49.9265 25.5633 49.8119 25.3826C49.6972 25.2019 49.5386 25.0534 49.3508 24.9509C49.163 24.8483 48.9522 24.7952 48.7382 24.7965L35.4685 24.7942Z" fill="#699938"/>
<path d="M26.8871 43.0503C21.4239 43.0503 16.9626 47.5061 16.9626 52.9654C16.9626 58.4247 21.4239 62.8712 26.8871 62.8712C32.3502 62.8712 36.8022 58.4247 36.8022 52.9654C36.8022 47.5061 32.3502 43.0503 26.8871 43.0503Z" fill="#FFCD40"/>
<path d="M26.8859 43.0493C23.5092 43.0493 20.5216 44.7551 18.7273 47.3444C20.3307 46.2326 22.2703 45.574 24.3611 45.574C29.8243 45.574 34.2777 50.0312 34.2777 55.4905C34.2777 57.575 33.6263 59.5092 32.5197 61.1072C35.1038 59.3168 36.8024 56.3362 36.8024 52.9659C36.8024 47.5066 32.349 43.0493 26.8859 43.0493Z" fill="#F8A92D"/>
<path d="M17.7313 9.08513C13.4617 12.1695 10.6794 16.5658 10.623 21.4945C10.6205 21.5374 10.6205 21.5816 10.623 21.6251C10.623 21.6267 10.623 21.6284 10.623 21.6299C10.5248 23.3834 13.197 23.4175 13.1453 21.6634C13.1567 20.6395 13.7277 19.6603 14.8219 18.8698C15.9161 18.0793 17.51 17.5461 19.292 17.5532C21.0739 17.558 22.6624 18.1044 23.7423 18.9018C24.8222 19.6993 25.3683 20.6716 25.3647 21.6954C25.3647 23.1719 27.8846 23.2776 27.8846 21.7049H27.8871C27.8871 21.7001 27.8846 21.6905 27.8846 21.6858C27.8846 20.3898 28.7348 19.4855 29.5637 18.8701C30.3838 18.2776 31.4839 17.8294 32.7344 17.6447V22.8545C32.6558 24.6125 35.3378 24.6125 35.2592 22.8545V17.6471C36.5358 17.8342 37.6598 18.2934 38.4841 18.9021C39.564 19.6996 40.1101 20.6719 40.1065 21.6957C40.008 23.4666 42.7168 23.4747 42.6288 21.7053V21.7005C42.6289 21.6909 42.6289 21.6765 42.6288 21.667C42.6402 20.6431 43.2111 19.6641 44.3053 18.8736C45.3996 18.0831 46.9935 17.5499 48.7754 17.557C50.5574 17.5618 52.1459 18.1082 53.2258 18.9056C54.3057 19.7031 54.8518 20.6754 54.8482 21.6992C54.8481 21.7373 54.8494 21.7764 54.8534 21.8151C54.9922 23.3066 57.1507 23.3638 57.3683 21.8819C57.3745 21.8437 57.3783 21.8045 57.3812 21.7659C57.3812 21.7626 57.3812 21.7612 57.3812 21.7564C57.3823 21.7421 57.3837 21.723 57.3837 21.7086C57.3837 21.7053 57.3837 21.7039 57.3837 21.6992C57.4014 16.7704 54.676 12.3461 50.4505 9.22579C46.225 6.10548 40.4727 4.20916 34.1281 4.18087C27.7835 4.15224 22.0013 6.00566 17.7317 9.09008L17.7313 9.08513ZM34.1172 6.70085C39.9623 6.71994 45.2201 8.496 48.9526 11.2523C50.8326 12.6405 52.3148 14.2619 53.3241 16.0405C51.9945 15.3991 50.4448 15.0338 48.785 15.0271C46.5037 15.0176 44.4158 15.6702 42.8281 16.8172C42.2725 17.2184 41.7789 17.6914 41.366 18.2176C40.9717 17.7154 40.5072 17.2581 39.9804 16.869C38.4075 15.7076 36.3245 15.0363 34.0433 15.0271C31.762 15.0176 29.6643 15.6702 28.0766 16.8172C27.5229 17.217 27.0322 17.6888 26.6219 18.2127C26.2282 17.7122 25.7641 17.257 25.2387 16.869C23.6658 15.7076 21.5828 15.0363 19.3016 15.0271C17.6208 15.0224 16.0423 15.3787 14.691 16.0232C15.7311 14.2017 17.261 12.5429 19.2079 11.1364C22.984 8.40854 28.2722 6.67733 34.1172 6.70085ZM35.3426 24.8007C34.4784 24.8894 33.9594 25.8015 34.3268 26.5883L37.3422 33.1096C36.2528 34.4531 35.4608 36.1588 34.672 37.533C33.8327 38.9952 32.8411 40.6915 32.2533 42.5134C32.0585 43.1171 31.9164 43.7519 31.844 44.3946C30.3812 43.5439 28.6904 43.0485 26.8832 43.0485C21.4195 43.0485 16.9568 47.5088 16.9568 52.9674C16.9568 58.426 21.4195 62.8767 26.8832 62.8767C29.8755 62.8767 32.5606 61.5363 34.3835 59.4322C34.7701 61.0352 36.2145 62.2478 37.929 62.2478H47.9467C49.9535 62.2478 51.613 60.5921 51.613 58.5866C51.613 57.6653 51.2513 56.8274 50.6785 56.1802C51.2513 55.5329 51.613 54.6949 51.613 53.7736C51.613 52.1639 50.5377 50.7935 49.0784 50.3095C49.6089 49.8792 50.1105 49.3937 50.5454 48.813C51.627 47.3597 52.2978 45.0535 51.5292 42.5183C50.9413 40.6964 49.9399 39.0099 49.1006 37.5477C48.3851 36.3012 47.79 34.5353 46.7558 33.1245L49.8846 26.6005C50.2788 25.7639 49.6683 24.8017 48.7431 24.8007H35.4684C35.4264 24.7986 35.3845 24.7986 35.3426 24.8007ZM37.4458 27.323H46.7336L44.4899 32.0026C42.5339 31.974 41.5045 31.9741 39.6081 31.9931L37.4458 27.323ZM39.5415 34.52C41.5501 34.5009 42.4814 34.501 44.5442 34.5296C46.0732 37.5258 48.0957 40.2068 49.1203 43.2873C49.5858 44.73 49.6345 45.9143 49.0167 46.9807C47.2525 49.5549 44.3041 50.0335 41.735 50.0429C39.166 50.0525 36.7942 49.5372 35.3106 47.7623C35.1358 47.4808 34.9498 47.208 34.7485 46.9462C34.1509 45.8885 34.1892 44.7149 34.6499 43.2873C35.1167 41.8405 36.027 40.2587 36.8714 38.7877C37.8182 37.3943 38.5993 35.9732 39.5415 34.52ZM26.8832 45.5806C31.0838 45.5806 34.2314 48.6628 34.2751 52.9674C34.2751 57.0613 30.9828 60.3445 26.8833 60.3445C22.7837 60.3445 19.4915 57.0613 19.4915 52.9674C19.4915 48.7258 23.7477 45.5806 26.8832 45.5806ZM37.929 52.6444H47.9466C48.598 52.6444 49.0882 53.1224 49.0882 53.7736C49.0882 54.4245 48.5979 54.9153 47.9466 54.9153H37.929C37.2777 54.9153 36.7973 54.4244 36.7973 53.7736C36.7973 53.1226 37.2777 52.6444 37.929 52.6444ZM37.929 57.4573H47.9466C48.598 57.4573 49.0882 57.9355 49.0882 58.5866C49.0882 59.2375 48.5979 59.7281 47.9466 59.7281H37.929C37.2777 59.7281 36.7973 59.2375 36.7973 58.5866C36.7973 57.9357 37.2777 57.4573 37.929 57.4573Z" fill="#F14902"/>
</svg>
