<svg width="22" height="21" viewBox="0 0 22 21" fill="none" xmlns="http://www.w3.org/2000/svg">
<path fill-rule="evenodd" clip-rule="evenodd" d="M11.3057 3.50132C11.5014 3.3057 11.7668 3.1958 12.0434 3.1958C12.3201 3.1958 12.5855 3.3057 12.7812 3.50132L19.0421 9.76219C19.2377 9.95787 19.3476 10.2232 19.3476 10.4999C19.3476 10.7766 19.2377 11.042 19.0421 11.2377L12.7812 17.4985C12.5844 17.6886 12.3208 17.7938 12.0472 17.7914C11.7736 17.789 11.5119 17.6793 11.3184 17.4858C11.125 17.2924 11.0152 17.0306 11.0128 16.757C11.0105 16.4834 11.1156 16.2199 11.3057 16.0231L15.7854 11.5434H3.69562C3.41888 11.5434 3.15346 11.4335 2.95777 11.2378C2.76208 11.0421 2.65215 10.7767 2.65215 10.4999C2.65215 10.2232 2.76208 9.95777 2.95777 9.76208C3.15346 9.56639 3.41888 9.45645 3.69562 9.45645H15.7854L11.3057 4.97679C11.1101 4.78111 11.0002 4.51575 11.0002 4.23906C11.0002 3.96236 11.1101 3.697 11.3057 3.50132Z" fill="#F14902"/>
</svg>
