<svg width="26" height="26" viewBox="0 0 26 26" fill="none" xmlns="http://www.w3.org/2000/svg">
<path d="M13 2.59998C10.9313 2.59998 8.94734 3.42176 7.48456 4.88454C6.02178 6.34733 5.19999 8.33129 5.19999 10.4V15.0618L4.28089 15.9809C4.09914 16.1627 3.97537 16.3943 3.92523 16.6464C3.8751 16.8986 3.90084 17.1599 3.99921 17.3974C4.09758 17.6349 4.26416 17.8379 4.4779 17.9808C4.69163 18.1236 4.94292 18.1999 5.19999 18.2H20.8C21.0571 18.1999 21.3084 18.1236 21.5221 17.9808C21.7358 17.8379 21.9024 17.6349 22.0008 17.3974C22.0991 17.1599 22.1249 16.8986 22.0748 16.6464C22.0246 16.3943 21.9008 16.1627 21.7191 15.9809L20.8 15.0618V10.4C20.8 8.33129 19.9782 6.34733 18.5154 4.88454C17.0526 3.42176 15.0687 2.59998 13 2.59998ZM13 23.4C11.9656 23.4 10.9737 22.9891 10.2423 22.2577C9.51088 21.5263 9.09999 20.5343 9.09999 19.5H16.9C16.9 20.5343 16.4891 21.5263 15.7577 22.2577C15.0263 22.9891 14.0343 23.4 13 23.4Z" fill="#F14902"/>
</svg>
