<svg width="27" height="18" viewBox="0 0 27 18" fill="none" xmlns="http://www.w3.org/2000/svg">
<g id="visa-color_large" opacity="0.8">
<rect id="card_bg" width="27" height="18" rx="4" fill="#2A2A6C"/>
<path id="visa-logo" fill-rule="evenodd" clip-rule="evenodd" d="M17.0716 9.93939C17.075 9.08172 16.3676 8.71128 15.8187 8.4238C15.4712 8.24181 15.1872 8.09307 15.1872 7.87502C15.1872 7.68939 15.3672 7.49252 15.7497 7.44189C16.2049 7.39685 16.6638 7.47658 17.0772 7.67252L17.3134 6.54752C16.9105 6.39641 16.4838 6.31831 16.0534 6.31689C14.7259 6.31689 13.8034 7.02564 13.8034 8.03814C13.8034 8.78627 14.4728 9.20252 14.9791 9.45002C15.4853 9.69752 15.6822 9.87189 15.6766 10.0969C15.6766 10.4456 15.2603 10.6031 14.8722 10.6088C14.3934 10.6149 13.921 10.4988 13.4997 10.2713L13.2578 11.3963C13.7345 11.5824 14.2423 11.6759 14.7541 11.6719C16.1659 11.6719 17.0941 10.9744 17.0997 9.89439L17.0716 9.93939ZM13.4213 6.40723L12.2963 11.6104H10.9463L12.0713 6.40723H13.4213ZM19.0801 9.78195L19.7888 7.83008L20.1995 9.78195H19.0801ZM21.8304 11.627H20.5816L20.4185 10.8507H18.7254L18.4497 11.627H17.0322L19.0516 6.80633C19.1447 6.57697 19.3666 6.42609 19.6141 6.42383H20.7391L21.8304 11.627ZM9.34297 11.5933L11.5255 6.39014H10.063L8.66234 9.92827L8.09984 6.91889C8.05005 6.61309 7.7853 6.38888 7.47547 6.39014H5.18609L5.15234 6.54202C5.61153 6.63186 6.05756 6.77927 6.47984 6.98077C6.65971 7.06533 6.78159 7.23854 6.80047 7.43639L7.87484 11.5933H9.34297Z" fill="white"/>
</g>
</svg>
